<svg width="198" height="200" viewBox="0 0 198 200" fill="none" xmlns="http://www.w3.org/2000/svg">
<path d="M0 10C0 4.47716 4.47715 0 10 0H96.7273V190C96.7273 195.523 92.2501 200 86.7273 200H10C4.47715 200 0 195.523 0 190V10Z" fill="#063455"/>
<path d="M95 0H188C193.523 0 198 4.47715 198 10V151C198 156.523 193.523 161 188 161H95V0Z" fill="#063455"/>
<g clip-path="url(#clip0_19_210)">
<path d="M27.3465 76.1246C28.3915 75.263 30.0627 75.5303 31.4023 75.7063C32.1369 75.8015 32.7019 76.0858 33.4661 76.0585C34.0556 76.0371 34.6448 75.6303 35.0915 75.3771C36.849 74.3841 38.0611 75.7303 39.4644 76.3842C40.8873 77.0493 42.6406 76.5631 44.0769 77.1798C44.6444 77.4231 45.2531 76.7916 44.6781 76.5451C43.0606 75.8496 41.1206 76.3198 39.5927 75.5143C38.3427 74.8549 37.2152 73.8616 35.5206 74.3164C34.7086 74.5344 34.1256 75.1203 33.2973 75.2844C32.8519 75.3713 32.1806 75.012 31.7327 74.9533C31.3256 74.9014 30.9173 74.8482 30.5073 74.8036C29.0144 74.644 27.5865 74.7835 26.5227 75.6588C26.0715 76.0313 26.9048 76.4897 27.3473 76.1252" fill="#D7D8DA"/>
<path d="M23.2049 78.912C20.4657 78.9136 18.2457 77.2029 18.2457 75.0966C18.2457 72.9901 20.4657 71.2822 23.2066 71.281L30.3107 71.2822C33.0495 71.2822 35.2716 72.991 35.2699 75.0979C35.2699 77.2048 33.0486 78.912 30.3107 78.912H23.2024" fill="#D9D9D9"/>
<path d="M35.0441 76.2396C35.1947 75.8701 35.2708 75.4849 35.2699 75.0976C35.2716 72.9904 33.0495 71.2819 30.3107 71.2819L23.2066 71.2806C20.4657 71.2819 18.2457 72.9901 18.2457 75.0963C18.2457 75.6056 18.3757 76.0909 18.6116 76.5349C23.5853 74.6084 29.807 74.6052 35.0453 76.2396" fill="#D7D8DA"/>
<path d="M34.4382 75.0976C34.4391 73.3939 32.987 71.9964 31.1078 71.7621C29.2307 71.999 27.7824 73.3939 27.7824 75.0963C27.7841 76.7996 29.2336 78.1981 31.1128 78.4302C32.9903 78.1949 34.4382 76.7996 34.4382 75.0976" fill="#E6E7E8"/>
</g>
<g clip-path="url(#clip1_19_210)">
<path d="M38.2424 42.3036V41.6625C47.9091 41.6625 47.9091 37.9443 47.9091 33.9697C47.9091 29.8668 47.9091 25.6357 58.2424 25.6357V26.2768C48.5758 26.2768 48.5758 29.995 48.5758 33.9697C48.5758 38.0725 48.5758 42.3036 38.2424 42.3036Z" fill="#94989B"/>
<path d="M20.2424 60.8946C19.1091 60.8946 18.2424 60.0613 18.2424 59.0997L18.2424 24.2254C18.2424 23.2638 19.1091 22.4304 20.2424 22.4304L36.2424 22.4304C37.3758 22.4304 38.2424 23.2638 38.2424 24.2254L38.2424 59.0997C38.2424 60.1254 37.3758 60.8946 36.2424 60.8946L20.2424 60.8946V60.8946Z" fill="#D0D0D0"/>
<path d="M32.2425 26.2768C31.9092 26.2768 31.5758 26.0204 31.5758 25.6357V24.3536C31.5758 23.9689 31.8425 23.7125 32.2425 23.7125H33.5758C33.9758 23.7125 34.2425 23.9689 34.2425 24.3536V25.6357C34.2425 26.0204 33.9758 26.2768 33.5758 26.2768L32.2425 26.2768ZM32.2425 30.1232C31.9092 30.1232 31.5758 29.8668 31.5758 29.4822V28.2C31.5758 27.8154 31.8425 27.5589 32.2425 27.5589L33.5758 27.5589C33.9758 27.5589 34.2425 27.8154 34.2425 28.2V29.4822C34.2425 29.8668 33.9758 30.1232 33.5758 30.1232L32.2425 30.1232ZM32.2425 33.9697C31.9092 33.9697 31.5758 33.7132 31.5758 33.3286V32.0464C31.5758 31.6618 31.8425 31.4054 32.2425 31.4054L33.5758 31.4054C33.9758 31.4054 34.2425 31.6618 34.2425 32.0464V33.3286C34.2425 33.7132 33.9758 33.9697 33.5758 33.9697H32.2425ZM32.2425 37.8161C31.9092 37.8161 31.5758 37.5597 31.5758 37.175V35.8929C31.5758 35.5082 31.8425 35.2518 32.2425 35.2518H33.5758C33.9758 35.2518 34.2425 35.5082 34.2425 35.8929V37.175C34.2425 37.5597 33.9758 37.8161 33.5758 37.8161H32.2425ZM32.2425 41.6625C31.9092 41.6625 31.5758 41.4061 31.5758 41.0214V39.7393C31.5758 39.3547 31.8425 39.0982 32.2425 39.0982H33.5758C33.9758 39.0982 34.2425 39.3547 34.2425 39.7393V41.0214C34.2425 41.4061 33.9758 41.6625 33.5758 41.6625H32.2425ZM32.2425 45.5089C31.9092 45.5089 31.5758 45.2525 31.5758 44.8679V43.5857C31.5758 43.2652 31.8425 42.9447 32.2425 42.9447H33.5758C33.9758 42.9447 34.2425 43.2011 34.2425 43.5857V44.8679C34.2425 45.2525 33.9758 45.5089 33.5758 45.5089H32.2425ZM32.2425 49.3554C31.9092 49.3554 31.5758 49.0989 31.5758 48.7143V47.4322C31.5758 47.0475 31.8425 46.7911 32.2425 46.7911H33.5758C33.9758 46.7911 34.2425 47.0475 34.2425 47.4322V48.7143C34.2425 49.0989 33.9758 49.3554 33.5758 49.3554H32.2425ZM32.2425 53.2018C31.9092 53.2018 31.5758 52.9454 31.5758 52.5607V51.2786C31.5758 50.958 31.8425 50.6375 32.2425 50.6375H33.5758C33.9758 50.6375 34.2425 50.8939 34.2425 51.2786V52.5607C34.2425 52.8813 33.9758 53.2018 33.5758 53.2018H32.2425ZM28.2425 54.4839C27.8425 54.4839 27.5758 54.2275 27.5758 53.8429V52.5607C27.5758 52.1761 27.8425 51.9196 28.2425 51.9196H29.5758C29.9092 51.9196 30.2425 52.1761 30.2425 52.5607L30.2425 53.8429C30.2425 54.1634 29.9758 54.4839 29.5758 54.4839H28.2425ZM28.2425 50.6375C27.8425 50.6375 27.5758 50.3811 27.5758 49.9964V48.7143C27.5758 48.3938 27.8425 48.0732 28.2425 48.0732H29.5758C29.9092 48.0732 30.2425 48.3297 30.2425 48.7143V49.9964C30.2425 50.3811 29.9758 50.6375 29.5758 50.6375H28.2425ZM28.2425 46.7911C27.8425 46.7911 27.5758 46.5347 27.5758 46.15V44.8679C27.5758 44.4832 27.8425 44.2268 28.2425 44.2268H29.5758C29.9092 44.2268 30.2425 44.4832 30.2425 44.8679V46.15C30.2425 46.4705 29.9758 46.7911 29.5758 46.7911H28.2425ZM28.2425 42.9447C27.8425 42.9447 27.5758 42.6882 27.5758 42.3036V41.0214C27.5758 40.6368 27.8425 40.3804 28.2425 40.3804H29.5758C29.9092 40.3804 30.2425 40.6368 30.2425 41.0214V42.3036C30.2425 42.6882 29.9758 42.9447 29.5758 42.9447H28.2425ZM28.2425 39.0982C27.8425 39.0982 27.5758 38.8418 27.5758 38.4572L27.5758 37.175C27.5758 36.8545 27.8425 36.5339 28.2425 36.5339L29.5758 36.5339C29.9092 36.5339 30.2425 36.7904 30.2425 37.175V38.4572C30.2425 38.8418 29.9758 39.0982 29.5758 39.0982L28.2425 39.0982ZM28.2425 35.2518C27.8425 35.2518 27.5758 34.9954 27.5758 34.6107V33.3286C27.5758 32.9439 27.8425 32.6875 28.2425 32.6875L29.5758 32.6875C29.9092 32.6875 30.2425 32.9439 30.2425 33.3286V34.6107C30.2425 34.9954 29.9758 35.2518 29.5758 35.2518L28.2425 35.2518ZM28.2425 31.4054C27.8425 31.4054 27.5758 31.1489 27.5758 30.7643V29.4822C27.5758 29.0975 27.8425 28.8411 28.2425 28.8411L29.5758 28.8411C29.9092 28.8411 30.2425 29.0975 30.2425 29.4822V30.7643C30.2425 31.1489 29.9758 31.4054 29.5758 31.4054L28.2425 31.4054ZM24.2425 32.6875C23.9092 32.6875 23.5758 32.4311 23.5758 32.0464V30.7643C23.5758 30.4438 23.8425 30.1232 24.2425 30.1232H25.5758C25.9758 30.1232 26.2425 30.3797 26.2425 30.7643V32.0464C26.2425 32.4311 25.9758 32.6875 25.5758 32.6875H24.2425ZM20.2425 31.4054C19.9092 31.4054 19.5758 31.1489 19.5758 30.7643V29.4822C19.5758 29.0975 19.8425 28.8411 20.2425 28.8411L21.5758 28.8411C21.9758 28.8411 22.2425 29.0975 22.2425 29.4822V30.7643C22.2425 31.1489 21.9758 31.4054 21.5758 31.4054L20.2425 31.4054ZM20.2425 35.2518C19.9092 35.2518 19.5758 34.9954 19.5758 34.6107V33.3286C19.5758 32.9439 19.8425 32.6875 20.2425 32.6875H21.5758C21.9758 32.6875 22.2425 32.9439 22.2425 33.3286V34.6107C22.2425 34.9954 21.9758 35.2518 21.5758 35.2518H20.2425ZM24.2425 36.5339C23.9092 36.5339 23.5758 36.2775 23.5758 35.8929V34.6107C23.5758 34.2261 23.8425 33.9697 24.2425 33.9697H25.5758C25.9758 33.9697 26.2425 34.2261 26.2425 34.6107V35.8929C26.2425 36.2775 25.9758 36.5339 25.5758 36.5339H24.2425ZM24.2425 40.3804C23.9092 40.3804 23.5758 40.1239 23.5758 39.7393V38.4572C23.5758 38.0725 23.8425 37.8161 24.2425 37.8161H25.5758C25.9758 37.8161 26.2425 38.0725 26.2425 38.4572V39.7393C26.2425 40.0598 25.9758 40.3804 25.5758 40.3804H24.2425ZM24.2425 44.2268C23.9092 44.2268 23.5758 43.9704 23.5758 43.5857V42.3036C23.5758 41.9189 23.8425 41.6625 24.2425 41.6625H25.5758C25.9758 41.6625 26.2425 41.9189 26.2425 42.3036V43.5857C26.2425 43.9704 25.9758 44.2268 25.5758 44.2268H24.2425ZM24.2425 48.0732C23.9092 48.0732 23.5758 47.8168 23.5758 47.4322V46.15C23.5758 45.7654 23.8425 45.5089 24.2425 45.5089H25.5758C25.9758 45.5089 26.2425 45.7654 26.2425 46.15V47.4322C26.2425 47.8168 25.9758 48.0732 25.5758 48.0732H24.2425ZM24.2425 51.9196C23.9092 51.9196 23.5758 51.6632 23.5758 51.2786V49.9964C23.5758 49.6759 23.8425 49.3554 24.2425 49.3554H25.5758C25.9758 49.3554 26.2425 49.6118 26.2425 49.9964V51.2786C26.2425 51.5991 25.9758 51.9196 25.5758 51.9196H24.2425ZM20.2425 53.2018C19.9092 53.2018 19.5758 52.9454 19.5758 52.5607L19.5758 51.2786C19.5758 50.958 19.8425 50.6375 20.2425 50.6375H21.5758C21.9758 50.6375 22.2425 50.8939 22.2425 51.2786V52.5607C22.2425 52.8813 21.9758 53.2018 21.5758 53.2018H20.2425ZM32.2425 59.6125C31.9092 59.6125 31.5758 59.3561 31.5758 59.0355V55.0609C31.5758 54.7404 31.8425 54.4839 32.2425 54.4839H33.5758C33.9758 54.4839 34.2425 54.7404 34.2425 55.0609L34.2425 59.0355C34.2425 59.3561 33.9758 59.6125 33.5758 59.6125H32.2425ZM20.2425 59.6125C19.9092 59.6125 19.5758 59.3561 19.5758 59.0355V55.0609C19.5758 54.7404 19.8425 54.4839 20.2425 54.4839H21.5758C21.9758 54.4839 22.2425 54.7404 22.2425 55.0609V59.0355C22.2425 59.3561 21.9758 59.6125 21.5758 59.6125H20.2425ZM24.2425 59.6125C23.9092 59.6125 23.5758 59.3561 23.5758 59.0996L23.5758 53.7146C23.5758 53.4582 23.8425 53.2018 24.2425 53.2018H25.5758C25.9758 53.2018 26.2425 53.4582 26.2425 53.7146L26.2425 59.0996C26.2425 59.4202 25.9758 59.6125 25.5758 59.6125H24.2425ZM24.2425 28.8411C23.9092 28.8411 23.5758 28.5847 23.5758 28.2641V24.2895C23.5758 23.9689 23.8425 23.7125 24.2425 23.7125H25.5758C25.9758 23.7125 26.2425 23.9689 26.2425 24.2895V28.2641C26.2425 28.5847 25.9758 28.8411 25.5758 28.8411H24.2425M28.2425 59.6125C27.8425 59.6125 27.5758 59.3561 27.5758 59.0355V56.343C27.5758 56.0225 27.8425 55.7661 28.2425 55.7661H29.5758C29.9092 55.7661 30.2425 56.0225 30.2425 56.343V59.0355C30.2425 59.3561 29.9758 59.6125 29.5758 59.6125H28.2425ZM28.2425 27.5589C27.8425 27.5589 27.5758 27.3025 27.5758 26.982V24.2895C27.5758 23.9689 27.8425 23.7125 28.2425 23.7125H29.5758C29.9092 23.7125 30.2425 23.9689 30.2425 24.2895V26.982C30.2425 27.3025 29.9758 27.5589 29.5758 27.5589H28.2425M20.2425 27.5589C19.9092 27.5589 19.5758 27.3025 19.5758 26.982V24.2895C19.5758 23.9689 19.9092 23.7125 20.2425 23.7125H21.5758C21.9092 23.7125 22.2425 23.9689 22.2425 24.2895V26.982C22.2425 27.3025 21.9758 27.5589 21.5758 27.5589L20.2425 27.5589ZM20.2425 49.3554C19.9092 49.3554 19.5758 49.0989 19.5758 48.8425L19.5758 37.0468C19.5758 36.7263 19.8425 36.5339 20.2425 36.5339H21.5758C21.9092 36.5339 22.2425 36.7904 22.2425 37.0468L22.2425 48.7784C22.2425 49.0989 21.9758 49.2913 21.5758 49.2913H20.2425V49.3554ZM35.5758 26.8538V25.6998C35.5758 24.8023 36.9092 24.8023 36.9092 25.6998V26.8538C36.9092 27.8154 35.5758 27.8154 35.5758 26.8538ZM35.5758 30.7002V29.4822C35.5758 28.5847 36.9092 28.5847 36.9092 29.4822V30.7002C36.9092 31.6618 35.5758 31.6618 35.5758 30.7002ZM35.5758 34.5466V33.3286C35.5758 32.4311 36.9092 32.4311 36.9092 33.3286V34.5466C36.9092 35.5082 35.5758 35.5082 35.5758 34.5466ZM35.5758 38.393V37.2391C35.5758 36.3416 36.9092 36.3416 36.9092 37.2391V38.393C36.9092 39.3547 35.5758 39.3547 35.5758 38.393ZM35.5758 42.2395V41.0855C35.5758 40.188 36.9092 40.188 36.9092 41.0855V42.2395C36.9092 43.2011 35.5758 43.2011 35.5758 42.2395ZM35.5758 46.0859V44.932C35.5758 44.0345 36.9092 44.0345 36.9092 44.932V46.0859C36.9092 47.0475 35.5758 47.0475 35.5758 46.0859ZM35.5758 49.9323V48.7784C35.5758 47.8809 36.9092 47.8809 36.9092 48.7784V49.9323C36.9092 50.8939 35.5758 50.8939 35.5758 49.9323ZM35.5758 53.7788V52.6248C35.5758 51.7273 36.9092 51.7273 36.9092 52.6248V53.7788C36.9092 54.7404 35.5758 54.7404 35.5758 53.7788ZM35.5758 57.6252L35.5758 56.4713C35.5758 55.5738 36.9092 55.5738 36.9092 56.4713L36.9092 57.6252C36.9092 58.5868 35.5758 58.5868 35.5758 57.6252Z" fill="white"/>
</g>
<rect x="64.9091" y="10.8911" width="64.1071" height="5.33333" transform="rotate(90 64.9091 10.8911)" fill="#D9D9D9"/>
<rect x="64.9091" y="85.2554" width="14.7446" height="26.6667" transform="rotate(90 64.9091 85.2554)" fill="#D9D9D9"/>
<g clip-path="url(#clip2_19_210)">
<path d="M32.0264 173C33.1031 172.316 34.825 172.528 36.2051 172.668C36.962 172.743 37.5441 172.969 38.3314 172.948C38.9389 172.931 39.5459 172.607 40.0061 172.406C41.8169 171.617 43.0657 172.687 44.5115 173.206C45.9776 173.735 47.784 173.349 49.2638 173.839C49.8485 174.032 50.4757 173.53 49.8833 173.334C48.2168 172.782 46.218 173.155 44.6438 172.515C43.3559 171.991 42.1942 171.202 40.4483 171.564C39.6116 171.737 39.011 172.202 38.1576 172.333C37.6987 172.402 37.0071 172.116 36.5456 172.07C36.1262 172.028 35.7055 171.986 35.283 171.951C33.7449 171.824 32.2737 171.935 31.1777 172.63C30.7128 172.926 31.5714 173.29 32.0273 173.001" fill="#D7D8DA"/>
<path d="M27.7592 175.215C24.937 175.216 22.6498 173.857 22.6498 172.183C22.6498 170.51 24.937 169.153 27.7609 169.152L35.0804 169.153C37.9021 169.153 40.1915 170.51 40.1898 172.184C40.1898 173.858 37.9013 175.215 35.0804 175.215H27.7566" fill="#D9D9D9"/>
<path d="M39.9571 173.092C40.1123 172.798 40.1908 172.492 40.1898 172.184C40.1915 170.51 37.9021 169.152 35.0804 169.152L27.7609 169.151C24.937 169.152 22.6498 170.51 22.6498 172.183C22.6498 172.588 22.7837 172.973 23.0267 173.326C28.1511 171.796 34.5614 171.793 39.9584 173.092" fill="#D7D8DA"/>
<path d="M39.333 172.184C39.3339 170.831 37.8378 169.72 35.9017 169.534C33.9677 169.722 32.4755 170.831 32.4755 172.183C32.4772 173.537 33.9707 174.648 35.9068 174.832C37.8412 174.645 39.333 173.537 39.333 172.184" fill="#E6E7E8"/>
</g>
<g clip-path="url(#clip3_19_210)">
<path d="M43.2523 146.127V145.618C53.2119 145.618 53.2119 142.663 53.2119 139.505C53.2119 136.245 53.2119 132.883 63.8584 132.883V133.393C53.8988 133.393 53.8988 136.347 53.8988 139.505C53.8988 142.765 53.8988 146.127 43.2523 146.127Z" fill="#94989B"/>
<path d="M24.7069 160.899C23.5392 160.899 22.6463 160.237 22.6463 159.473L22.6463 131.763C22.6463 130.999 23.5392 130.337 24.7069 130.337H41.1917C42.3594 130.337 43.2523 130.999 43.2523 131.763L43.2523 159.473C43.2523 160.288 42.3594 160.899 41.1917 160.899H24.7069V160.899Z" fill="#D0D0D0"/>
<path d="M37.0706 133.393C36.7271 133.393 36.3837 133.189 36.3837 132.883V131.865C36.3837 131.559 36.6585 131.355 37.0706 131.355H38.4443C38.8564 131.355 39.1312 131.559 39.1312 131.865V132.883C39.1312 133.189 38.8564 133.393 38.4443 133.393H37.0706ZM37.0706 136.449C36.7271 136.449 36.3837 136.245 36.3837 135.94V134.921C36.3837 134.615 36.6585 134.412 37.0706 134.412H38.4443C38.8564 134.412 39.1312 134.615 39.1312 134.921V135.94C39.1312 136.245 38.8564 136.449 38.4443 136.449H37.0706ZM37.0706 139.505C36.7271 139.505 36.3837 139.302 36.3837 138.996V137.977C36.3837 137.672 36.6585 137.468 37.0706 137.468H38.4443C38.8564 137.468 39.1312 137.672 39.1312 137.977V138.996C39.1312 139.302 38.8564 139.505 38.4443 139.505H37.0706ZM37.0706 142.562C36.7271 142.562 36.3837 142.358 36.3837 142.052V141.033C36.3837 140.728 36.6585 140.524 37.0706 140.524H38.4443C38.8564 140.524 39.1312 140.728 39.1312 141.033V142.052C39.1312 142.358 38.8564 142.562 38.4443 142.562H37.0706ZM37.0706 145.618C36.7271 145.618 36.3837 145.414 36.3837 145.108V144.09C36.3837 143.784 36.6585 143.58 37.0706 143.58H38.4443C38.8564 143.58 39.1312 143.784 39.1312 144.09V145.108C39.1312 145.414 38.8564 145.618 38.4443 145.618H37.0706ZM37.0706 148.674C36.7271 148.674 36.3837 148.47 36.3837 148.165V147.146C36.3837 146.891 36.6585 146.637 37.0706 146.637H38.4443C38.8564 146.637 39.1312 146.84 39.1312 147.146V148.165C39.1312 148.47 38.8564 148.674 38.4443 148.674H37.0706ZM37.0706 151.73C36.7271 151.73 36.3837 151.527 36.3837 151.221V150.202C36.3837 149.897 36.6585 149.693 37.0706 149.693H38.4443C38.8564 149.693 39.1312 149.897 39.1312 150.202V151.221C39.1312 151.527 38.8564 151.73 38.4443 151.73H37.0706ZM37.0706 154.787C36.7271 154.787 36.3837 154.583 36.3837 154.277V153.258C36.3837 153.004 36.6585 152.749 37.0706 152.749H38.4443C38.8564 152.749 39.1312 152.953 39.1312 153.258V154.277C39.1312 154.532 38.8564 154.787 38.4443 154.787H37.0706ZM32.9494 155.805C32.5372 155.805 32.2625 155.602 32.2625 155.296V154.277C32.2625 153.972 32.5372 153.768 32.9494 153.768H34.3231C34.6665 153.768 35.01 153.972 35.01 154.277L35.01 155.296C35.01 155.551 34.7352 155.805 34.3231 155.805H32.9494ZM32.9494 152.749C32.5372 152.749 32.2625 152.545 32.2625 152.24V151.221C32.2625 150.966 32.5372 150.712 32.9494 150.712H34.3231C34.6665 150.712 35.01 150.915 35.01 151.221V152.24C35.01 152.545 34.7352 152.749 34.3231 152.749H32.9494ZM32.9494 149.693C32.5372 149.693 32.2625 149.489 32.2625 149.183V148.165C32.2625 147.859 32.5372 147.655 32.9494 147.655H34.3231C34.6665 147.655 35.01 147.859 35.01 148.165V149.183C35.01 149.438 34.7352 149.693 34.3231 149.693H32.9494ZM32.9494 146.637C32.5372 146.637 32.2625 146.433 32.2625 146.127V145.108C32.2625 144.803 32.5372 144.599 32.9494 144.599H34.3231C34.6665 144.599 35.01 144.803 35.01 145.108V146.127C35.01 146.433 34.7352 146.637 34.3231 146.637H32.9494ZM32.9494 143.58C32.5372 143.58 32.2625 143.377 32.2625 143.071V142.052C32.2625 141.798 32.5372 141.543 32.9494 141.543H34.3231C34.6665 141.543 35.01 141.747 35.01 142.052V143.071C35.01 143.377 34.7352 143.58 34.3231 143.58H32.9494ZM32.9494 140.524C32.5372 140.524 32.2625 140.32 32.2625 140.015V138.996C32.2625 138.69 32.5372 138.487 32.9494 138.487H34.3231C34.6665 138.487 35.01 138.69 35.01 138.996V140.015C35.01 140.32 34.7352 140.524 34.3231 140.524H32.9494ZM32.9494 137.468C32.5372 137.468 32.2625 137.264 32.2625 136.958V135.94C32.2625 135.634 32.5372 135.43 32.9494 135.43H34.3231C34.6665 135.43 35.01 135.634 35.01 135.94V136.958C35.01 137.264 34.7352 137.468 34.3231 137.468H32.9494ZM28.8282 138.487C28.4847 138.487 28.1413 138.283 28.1413 137.977L28.1413 136.958C28.1413 136.704 28.416 136.449 28.8282 136.449H30.2019C30.614 136.449 30.8888 136.653 30.8888 136.958L30.8888 137.977C30.8888 138.283 30.614 138.487 30.2019 138.487H28.8282ZM24.7069 137.468C24.3635 137.468 24.0201 137.264 24.0201 136.958V135.94C24.0201 135.634 24.2948 135.43 24.7069 135.43H26.0807C26.4928 135.43 26.7676 135.634 26.7676 135.94V136.958C26.7676 137.264 26.4928 137.468 26.0807 137.468H24.7069ZM24.7069 140.524C24.3635 140.524 24.0201 140.32 24.0201 140.015V138.996C24.0201 138.69 24.2948 138.487 24.7069 138.487H26.0807C26.4928 138.487 26.7676 138.69 26.7676 138.996V140.015C26.7676 140.32 26.4928 140.524 26.0807 140.524H24.7069ZM28.8282 141.543C28.4847 141.543 28.1413 141.339 28.1413 141.033V140.015C28.1413 139.709 28.416 139.505 28.8282 139.505H30.2019C30.614 139.505 30.8888 139.709 30.8888 140.015V141.033C30.8888 141.339 30.614 141.543 30.2019 141.543H28.8282ZM28.8282 144.599C28.4847 144.599 28.1413 144.395 28.1413 144.09V143.071C28.1413 142.765 28.416 142.562 28.8282 142.562H30.2019C30.614 142.562 30.8888 142.765 30.8888 143.071V144.09C30.8888 144.344 30.614 144.599 30.2019 144.599H28.8282ZM28.8282 147.655C28.4847 147.655 28.1413 147.452 28.1413 147.146V146.127C28.1413 145.822 28.416 145.618 28.8282 145.618H30.2019C30.614 145.618 30.8888 145.822 30.8888 146.127V147.146C30.8888 147.452 30.614 147.655 30.2019 147.655H28.8282ZM28.8282 150.712C28.4847 150.712 28.1413 150.508 28.1413 150.202V149.183C28.1413 148.878 28.416 148.674 28.8282 148.674H30.2019C30.614 148.674 30.8888 148.878 30.8888 149.183V150.202C30.8888 150.508 30.614 150.712 30.2019 150.712H28.8282ZM28.8282 153.768C28.4847 153.768 28.1413 153.564 28.1413 153.258V152.24C28.1413 151.985 28.416 151.73 28.8282 151.73H30.2019C30.614 151.73 30.8888 151.934 30.8888 152.24V153.258C30.8888 153.513 30.614 153.768 30.2019 153.768H28.8282ZM24.7069 154.787C24.3635 154.787 24.0201 154.583 24.0201 154.277V153.258C24.0201 153.004 24.2948 152.749 24.7069 152.749H26.0807C26.4928 152.749 26.7676 152.953 26.7676 153.258L26.7676 154.277C26.7676 154.532 26.4928 154.787 26.0807 154.787H24.7069ZM37.0706 159.88C36.7271 159.88 36.3837 159.677 36.3837 159.422V156.264C36.3837 156.009 36.6585 155.805 37.0706 155.805H38.4443C38.8564 155.805 39.1312 156.009 39.1312 156.264V159.422C39.1312 159.677 38.8564 159.88 38.4443 159.88H37.0706ZM24.7069 159.88C24.3635 159.88 24.0201 159.677 24.0201 159.422V156.264C24.0201 156.009 24.2948 155.805 24.7069 155.805H26.0807C26.4928 155.805 26.7676 156.009 26.7676 156.264L26.7676 159.422C26.7676 159.677 26.4928 159.88 26.0807 159.88H24.7069ZM28.8282 159.88C28.4847 159.88 28.1413 159.677 28.1413 159.473L28.1413 155.194C28.1413 154.99 28.416 154.787 28.8282 154.787H30.2019C30.614 154.787 30.8888 154.99 30.8888 155.194L30.8888 159.473C30.8888 159.727 30.614 159.88 30.2019 159.88H28.8282ZM28.8282 135.43C28.4847 135.43 28.1413 135.227 28.1413 134.972V131.814C28.1413 131.559 28.416 131.355 28.8282 131.355H30.2019C30.614 131.355 30.8888 131.559 30.8888 131.814V134.972C30.8888 135.227 30.614 135.43 30.2019 135.43H28.8282M32.9494 159.88C32.5372 159.88 32.2625 159.677 32.2625 159.422V157.282C32.2625 157.028 32.5372 156.824 32.9494 156.824H34.3231C34.6665 156.824 35.01 157.028 35.01 157.282V159.422C35.01 159.677 34.7352 159.88 34.3231 159.88H32.9494ZM32.9494 134.412C32.5372 134.412 32.2625 134.208 32.2625 133.953V131.814C32.2625 131.559 32.5372 131.355 32.9494 131.355H34.3231C34.6665 131.355 35.01 131.559 35.01 131.814V133.953C35.01 134.208 34.7352 134.412 34.3231 134.412H32.9494M24.7069 134.412C24.3635 134.412 24.0201 134.208 24.0201 133.953V131.814C24.0201 131.559 24.3635 131.355 24.7069 131.355H26.0807C26.4241 131.355 26.7676 131.559 26.7676 131.814V133.953C26.7676 134.208 26.4928 134.412 26.0807 134.412H24.7069ZM24.7069 151.73C24.3635 151.73 24.0201 151.527 24.0201 151.323L24.0201 141.95C24.0201 141.696 24.2948 141.543 24.7069 141.543H26.0807C26.4241 141.543 26.7676 141.747 26.7676 141.95V151.272C26.7676 151.527 26.4928 151.679 26.0807 151.679H24.7069V151.73ZM40.5049 133.851V132.934C40.5049 132.221 41.8787 132.221 41.8787 132.934V133.851C41.8787 134.615 40.5049 134.615 40.5049 133.851ZM40.5049 136.908V135.94C40.5049 135.227 41.8787 135.227 41.8787 135.94V136.908C41.8787 137.672 40.5049 137.672 40.5049 136.908ZM40.5049 139.964L40.5049 138.996C40.5049 138.283 41.8787 138.283 41.8787 138.996L41.8787 139.964C41.8787 140.728 40.5049 140.728 40.5049 139.964ZM40.5049 143.02V142.103C40.5049 141.39 41.8787 141.39 41.8787 142.103V143.02C41.8787 143.784 40.5049 143.784 40.5049 143.02ZM40.5049 146.076V145.159C40.5049 144.446 41.8787 144.446 41.8787 145.159V146.076C41.8787 146.84 40.5049 146.84 40.5049 146.076ZM40.5049 149.133V148.216C40.5049 147.503 41.8787 147.503 41.8787 148.216V149.133C41.8787 149.897 40.5049 149.897 40.5049 149.133ZM40.5049 152.189V151.272C40.5049 150.559 41.8787 150.559 41.8787 151.272V152.189C41.8787 152.953 40.5049 152.953 40.5049 152.189ZM40.5049 155.245V154.328C40.5049 153.615 41.8787 153.615 41.8787 154.328V155.245C41.8787 156.009 40.5049 156.009 40.5049 155.245ZM40.5049 158.301V157.384C40.5049 156.671 41.8787 156.671 41.8787 157.384V158.301C41.8787 159.065 40.5049 159.065 40.5049 158.301Z" fill="white"/>
</g>
<rect x="70.7272" y="121.168" width="50.9374" height="5.49495" transform="rotate(90 70.7272 121.168)" fill="#D9D9D9"/>
<rect x="70.7272" y="180.255" width="11.7156" height="27.4747" transform="rotate(90 70.7272 180.255)" fill="#D9D9D9"/>
<g clip-path="url(#clip4_19_210)">
<path d="M120.876 27.0742C121.593 28.123 121.371 29.8003 121.224 31.1448C121.145 31.8821 120.908 32.4491 120.931 33.2161C120.949 33.8078 121.287 34.3991 121.498 34.8474C122.325 36.6114 121.204 37.8279 120.66 39.2363C120.106 40.6644 120.511 42.4242 119.998 43.8656C119.795 44.4352 120.321 45.0462 120.526 44.4691C121.105 42.8457 120.713 40.8986 121.384 39.3651C121.933 38.1106 122.76 36.9789 122.381 35.2782C122.2 34.4631 121.712 33.8781 121.575 33.0467C121.503 32.5997 121.802 31.926 121.851 31.4764C121.894 31.0679 121.939 30.658 121.976 30.2465C122.108 28.7482 121.992 27.315 121.264 26.2474C120.954 25.7945 120.572 26.6309 120.875 27.075" fill="#D7D8DA"/>
<path d="M118.556 22.9173C118.554 20.1682 119.978 17.9401 121.732 17.9401C123.485 17.9401 124.907 20.1682 124.908 22.919L124.907 30.0491C124.907 32.7979 123.485 35.0281 121.731 35.0264C119.977 35.0264 118.556 32.797 118.556 30.0491V22.9148" fill="#D9D9D9"/>
<path d="M120.78 34.7997C121.088 34.9509 121.408 35.0273 121.731 35.0264C123.485 35.028 124.907 32.7979 124.907 30.0491L124.908 22.919C124.907 20.1682 123.485 17.9401 121.732 17.9401C121.308 17.9401 120.904 18.0705 120.534 18.3072C122.138 23.2991 122.141 29.5435 120.78 34.801" fill="#D7D8DA"/>
<path d="M121.731 34.1917C123.149 34.1925 124.313 32.7351 124.508 30.8491C124.31 28.9652 123.149 27.5115 121.732 27.5115C120.314 27.5132 119.15 28.9681 118.957 30.8541C119.152 32.7385 120.314 34.1917 121.731 34.1917" fill="#E6E7E8"/>
</g>
<path d="M154.635 38.4112H155.169C155.169 48.1131 158.264 48.1131 161.573 48.1131C164.989 48.1131 168.511 48.1131 168.511 58.4842H167.977C167.977 48.7822 164.882 48.7822 161.573 48.7822C158.157 48.7822 154.635 48.7822 154.635 38.4112Z" fill="#94989B"/>
<path d="M139.158 20.3455C139.158 19.208 139.852 18.3382 140.653 18.3382L169.685 18.3382C170.485 18.3382 171.179 19.208 171.179 20.3455V36.4039C171.179 37.5414 170.485 38.4112 169.685 38.4112L140.653 38.4112C139.799 38.4112 139.158 37.5414 139.158 36.4039V20.3455V20.3455Z" fill="#D0D0D0"/>
<path d="M167.977 32.3893C167.977 32.0547 168.191 31.7202 168.511 31.7202H169.578C169.898 31.7202 170.112 31.9878 170.112 32.3893V33.7275C170.112 34.129 169.898 34.3966 169.578 34.3966H168.511C168.191 34.3966 167.977 34.129 167.977 33.7275V32.3893ZM164.775 32.3893C164.775 32.0547 164.988 31.7202 165.309 31.7202H166.376C166.696 31.7202 166.91 31.9878 166.91 32.3893V33.7275C166.91 34.129 166.696 34.3966 166.376 34.3966H165.309C164.988 34.3966 164.775 34.129 164.775 33.7275V32.3893ZM161.573 32.3893C161.573 32.0547 161.786 31.7202 162.107 31.7202H163.174C163.494 31.7202 163.708 31.9878 163.708 32.3893V33.7275C163.708 34.129 163.494 34.3966 163.174 34.3966H162.107C161.786 34.3966 161.573 34.129 161.573 33.7275V32.3893ZM158.371 32.3893C158.371 32.0547 158.584 31.7202 158.904 31.7202H159.972C160.292 31.7202 160.506 31.9878 160.506 32.3893V33.7275C160.506 34.129 160.292 34.3966 159.972 34.3966H158.904C158.584 34.3966 158.371 34.129 158.371 33.7275V32.3893ZM155.169 32.3893C155.169 32.0547 155.382 31.7202 155.702 31.7202H156.77C157.09 31.7202 157.303 31.9878 157.303 32.3893V33.7275C157.303 34.129 157.09 34.3966 156.77 34.3966H155.702C155.382 34.3966 155.169 34.129 155.169 33.7275V32.3893ZM151.967 32.3893C151.967 32.0547 152.18 31.7202 152.5 31.7202H153.568C153.835 31.7202 154.101 31.9878 154.101 32.3893V33.7275C154.101 34.129 153.888 34.3966 153.568 34.3966H152.5C152.18 34.3966 151.967 34.129 151.967 33.7275V32.3893ZM148.765 32.3893C148.765 32.0547 148.978 31.7202 149.298 31.7202H150.366C150.686 31.7202 150.899 31.9878 150.899 32.3893V33.7275C150.899 34.129 150.686 34.3966 150.366 34.3966H149.298C148.978 34.3966 148.765 34.129 148.765 33.7275V32.3893ZM145.562 32.3893C145.562 32.0547 145.776 31.7202 146.096 31.7202H147.163C147.43 31.7202 147.697 31.9878 147.697 32.3893V33.7275C147.697 34.129 147.484 34.3966 147.163 34.3966H146.096C145.829 34.3966 145.562 34.129 145.562 33.7275V32.3893ZM144.495 28.3747C144.495 27.9732 144.709 27.7056 145.029 27.7056H146.096C146.416 27.7056 146.63 27.9732 146.63 28.3747V29.7129C146.63 30.0474 146.416 30.382 146.096 30.382H145.029C144.762 30.382 144.495 30.1144 144.495 29.7129V28.3747ZM147.697 28.3747C147.697 27.9732 147.911 27.7056 148.231 27.7056L149.298 27.7056C149.565 27.7056 149.832 27.9732 149.832 28.3747V29.7129C149.832 30.0474 149.618 30.382 149.298 30.382H148.231C147.911 30.382 147.697 30.1144 147.697 29.7129V28.3747ZM150.899 28.3747C150.899 27.9732 151.113 27.7056 151.433 27.7056H152.5C152.821 27.7056 153.034 27.9732 153.034 28.3747V29.7129C153.034 30.0474 152.821 30.382 152.5 30.382L151.433 30.382C151.166 30.382 150.899 30.1144 150.899 29.7129V28.3747ZM154.101 28.3747C154.101 27.9732 154.315 27.7056 154.635 27.7056H155.702C156.023 27.7056 156.236 27.9732 156.236 28.3747V29.7129C156.236 30.0474 156.023 30.382 155.702 30.382H154.635C154.315 30.382 154.101 30.1144 154.101 29.7129V28.3747ZM157.303 28.3747C157.303 27.9732 157.517 27.7056 157.837 27.7056H158.904C159.171 27.7056 159.438 27.9732 159.438 28.3747V29.7129C159.438 30.0474 159.225 30.382 158.904 30.382H157.837C157.517 30.382 157.303 30.1144 157.303 29.7129V28.3747ZM160.506 28.3747C160.506 27.9732 160.719 27.7056 161.039 27.7056H162.107C162.427 27.7056 162.64 27.9732 162.64 28.3747V29.7129C162.64 30.0474 162.427 30.382 162.107 30.382H161.039C160.719 30.382 160.506 30.1144 160.506 29.7129V28.3747ZM163.708 28.3747C163.708 27.9732 163.921 27.7056 164.241 27.7056H165.309C165.629 27.7056 165.842 27.9732 165.842 28.3747V29.7129C165.842 30.0474 165.629 30.382 165.309 30.382H164.241C163.921 30.382 163.708 30.1144 163.708 29.7129V28.3747ZM162.64 24.3601C162.64 24.0255 162.854 23.691 163.174 23.691H164.241C164.508 23.691 164.775 23.9586 164.775 24.3601V25.6983C164.775 26.0998 164.562 26.3674 164.241 26.3674H163.174C162.854 26.3674 162.64 26.0998 162.64 25.6983V24.3601ZM163.708 20.3455C163.708 20.0109 163.921 19.6764 164.241 19.6764H165.309C165.629 19.6764 165.842 19.944 165.842 20.3455V21.6837C165.842 22.0852 165.629 22.3528 165.309 22.3528H164.241C163.921 22.3528 163.708 22.0852 163.708 21.6837V20.3455ZM160.506 20.3455C160.506 20.0109 160.719 19.6764 161.039 19.6764H162.107C162.427 19.6764 162.64 19.944 162.64 20.3455V21.6837C162.64 22.0852 162.427 22.3528 162.107 22.3528H161.039C160.719 22.3528 160.506 22.0852 160.506 21.6837V20.3455ZM159.438 24.3601C159.438 24.0255 159.652 23.691 159.972 23.691H161.039C161.359 23.691 161.573 23.9586 161.573 24.3601V25.6983C161.573 26.0998 161.359 26.3674 161.039 26.3674H159.972C159.652 26.3674 159.438 26.0998 159.438 25.6983V24.3601ZM156.236 24.3601C156.236 24.0255 156.45 23.691 156.77 23.691H157.837C158.157 23.691 158.371 23.9586 158.371 24.3601V25.6983C158.371 26.0998 158.157 26.3674 157.837 26.3674H156.77C156.503 26.3674 156.236 26.0998 156.236 25.6983V24.3601ZM153.034 24.3601C153.034 24.0255 153.247 23.691 153.568 23.691H154.635C154.955 23.691 155.169 23.9586 155.169 24.3601V25.6983C155.169 26.0998 154.955 26.3674 154.635 26.3674H153.568C153.247 26.3674 153.034 26.0998 153.034 25.6983V24.3601ZM149.832 24.3601C149.832 24.0255 150.045 23.691 150.366 23.691H151.433C151.753 23.691 151.967 23.9586 151.967 24.3601V25.6983C151.967 26.0998 151.753 26.3674 151.433 26.3674H150.366C150.045 26.3674 149.832 26.0998 149.832 25.6983V24.3601ZM146.63 24.3601C146.63 24.0255 146.843 23.691 147.163 23.691H148.231C148.498 23.691 148.765 23.9586 148.765 24.3601V25.6983C148.765 26.0998 148.551 26.3674 148.231 26.3674H147.163C146.897 26.3674 146.63 26.0998 146.63 25.6983V24.3601ZM145.562 20.3455C145.562 20.0109 145.776 19.6764 146.096 19.6764H147.163C147.43 19.6764 147.697 19.944 147.697 20.3455V21.6837C147.697 22.0852 147.484 22.3528 147.163 22.3528H146.096C145.829 22.3528 145.562 22.0852 145.562 21.6837V20.3455ZM140.226 32.3893C140.226 32.0547 140.439 31.7202 140.706 31.7202H144.015C144.282 31.7202 144.495 31.9878 144.495 32.3893V33.7275C144.495 34.129 144.282 34.3966 144.015 34.3966H140.706C140.439 34.3966 140.226 34.129 140.226 33.7275V32.3893ZM140.226 20.3455C140.226 20.0109 140.439 19.6764 140.706 19.6764H144.015C144.282 19.6764 144.495 19.944 144.495 20.3455V21.6837C144.495 22.0852 144.282 22.3528 144.015 22.3528H140.706C140.439 22.3528 140.226 22.0852 140.226 21.6837V20.3455ZM140.226 24.3601C140.226 24.0255 140.439 23.691 140.653 23.691H145.135C145.349 23.691 145.562 23.9586 145.562 24.3601V25.6983C145.562 26.0998 145.349 26.3674 145.135 26.3674H140.653C140.386 26.3674 140.226 26.0998 140.226 25.6983V24.3601ZM165.842 24.3601C165.842 24.0255 166.056 23.691 166.323 23.691H169.632C169.898 23.691 170.112 23.9586 170.112 24.3601V25.6983C170.112 26.0998 169.898 26.3674 169.632 26.3674H166.323C166.056 26.3674 165.842 26.0998 165.842 25.6983V24.3601M140.226 28.3747C140.226 27.9732 140.439 27.7056 140.706 27.7056H142.947C143.214 27.7056 143.428 27.9732 143.428 28.3747V29.7129C143.428 30.0474 143.214 30.382 142.947 30.382H140.706C140.439 30.382 140.226 30.1144 140.226 29.7129V28.3747ZM166.91 28.3747C166.91 27.9732 167.123 27.7056 167.39 27.7056H169.632C169.898 27.7056 170.112 27.9732 170.112 28.3747V29.7129C170.112 30.0474 169.898 30.382 169.632 30.382H167.39C167.123 30.382 166.91 30.1144 166.91 29.7129V28.3747M166.91 20.3455C166.91 20.0109 167.123 19.6764 167.39 19.6764H169.632C169.898 19.6764 170.112 20.0109 170.112 20.3455V21.6837C170.112 22.0182 169.898 22.3528 169.632 22.3528H167.39C167.123 22.3528 166.91 22.0852 166.91 21.6837V20.3455ZM148.765 20.3455C148.765 20.0109 148.978 19.6764 149.191 19.6764L159.011 19.6764C159.278 19.6764 159.438 19.944 159.438 20.3455V21.6837C159.438 22.0182 159.225 22.3528 159.011 22.3528H149.245C148.978 22.3528 148.818 22.0852 148.818 21.6837V20.3455H148.765ZM167.497 35.7348H168.457C169.205 35.7348 169.205 37.073 168.457 37.073H167.497C166.696 37.073 166.696 35.7348 167.497 35.7348ZM164.295 35.7348H165.309C166.056 35.7348 166.056 37.073 165.309 37.073H164.295C163.494 37.073 163.494 35.7348 164.295 35.7348ZM161.093 35.7348H162.107C162.854 35.7348 162.854 37.073 162.107 37.073H161.093C160.292 37.073 160.292 35.7348 161.093 35.7348ZM157.89 35.7348H158.851C159.598 35.7348 159.598 37.073 158.851 37.073H157.89C157.09 37.073 157.09 35.7348 157.89 35.7348ZM154.688 35.7348H155.649C156.396 35.7348 156.396 37.073 155.649 37.073H154.688C153.888 37.073 153.888 35.7348 154.688 35.7348ZM151.486 35.7348H152.447C153.194 35.7348 153.194 37.073 152.447 37.073H151.486C150.686 37.073 150.686 35.7348 151.486 35.7348ZM148.284 35.7348H149.245C149.992 35.7348 149.992 37.073 149.245 37.073H148.284C147.484 37.073 147.484 35.7348 148.284 35.7348ZM145.082 35.7348H146.043C146.79 35.7348 146.79 37.073 146.043 37.073H145.082C144.282 37.073 144.282 35.7348 145.082 35.7348ZM141.88 35.7348H142.841C143.588 35.7348 143.588 37.073 142.841 37.073H141.88C141.08 37.073 141.08 35.7348 141.88 35.7348Z" fill="white"/>
<rect x="175.182" y="64.7737" width="53.3682" height="5.3528" transform="rotate(-180 175.182 64.7737)" fill="#D9D9D9"/>
<rect x="113.275" y="64.7737" width="12.2747" height="26.764" transform="rotate(-180 113.275 64.7737)" fill="#D9D9D9"/>
<g clip-path="url(#clip5_19_210)">
<path d="M161.306 133.128C160.589 132.096 160.811 130.444 160.958 129.119C161.037 128.393 161.274 127.835 161.251 127.08C161.233 126.497 160.894 125.914 160.684 125.473C159.857 123.736 160.978 122.538 161.522 121.151C162.076 119.744 161.671 118.011 162.184 116.591C162.387 116.03 161.861 115.429 161.656 115.997C161.077 117.596 161.468 119.513 160.798 121.024C160.249 122.259 159.422 123.374 159.801 125.049C159.982 125.851 160.47 126.428 160.606 127.246C160.679 127.687 160.38 128.35 160.331 128.793C160.288 129.195 160.243 129.599 160.206 130.004C160.073 131.48 160.189 132.891 160.918 133.943C161.228 134.389 161.61 133.565 161.306 133.128" fill="#D7D8DA"/>
<path d="M163.626 137.222C163.628 139.93 162.203 142.124 160.45 142.124C158.696 142.124 157.275 139.93 157.274 137.221L157.275 130.198C157.275 127.491 158.697 125.295 160.451 125.297C162.205 125.297 163.626 127.492 163.626 130.198V137.225" fill="#D9D9D9"/>
<path d="M161.402 125.52C161.094 125.371 160.773 125.296 160.451 125.297C158.697 125.295 157.274 127.491 157.274 130.198L157.273 137.221C157.274 139.93 158.696 142.124 160.45 142.124C160.874 142.124 161.278 141.996 161.647 141.762C160.044 136.846 160.041 130.696 161.402 125.519" fill="#D7D8DA"/>
<path d="M160.451 126.119C159.033 126.118 157.869 127.553 157.674 129.411C157.871 131.266 159.033 132.698 160.45 132.698C161.868 132.696 163.032 131.263 163.225 129.406C163.029 127.55 161.868 126.119 160.451 126.119" fill="#E6E7E8"/>
</g>
<path d="M133.15 122.358H132.617C132.617 112.804 129.521 112.804 126.212 112.804C122.797 112.804 119.275 112.804 119.275 102.59H119.808C119.808 112.145 122.904 112.145 126.212 112.145C129.628 112.145 133.15 112.145 133.15 122.358Z" fill="#94989B"/>
<path d="M148.627 140.15C148.627 141.271 147.933 142.127 147.133 142.127H118.101C117.3 142.127 116.606 141.271 116.606 140.15V124.335C116.606 123.215 117.3 122.358 118.101 122.358H147.133C147.987 122.358 148.627 123.215 148.627 124.335V140.15V140.15Z" fill="#D0D0D0"/>
<path d="M119.808 128.289C119.808 128.619 119.595 128.948 119.275 128.948H118.207C117.887 128.948 117.674 128.685 117.674 128.289V126.971C117.674 126.576 117.887 126.312 118.207 126.312H119.275C119.595 126.312 119.808 126.576 119.808 126.971V128.289ZM123.01 128.289C123.01 128.619 122.797 128.948 122.477 128.948H121.409C121.089 128.948 120.876 128.685 120.876 128.289V126.971C120.876 126.576 121.089 126.312 121.409 126.312H122.477C122.797 126.312 123.01 126.576 123.01 126.971V128.289ZM126.212 128.289C126.212 128.619 125.999 128.948 125.679 128.948H124.611C124.291 128.948 124.078 128.685 124.078 128.289V126.971C124.078 126.576 124.291 126.312 124.611 126.312H125.679C125.999 126.312 126.212 126.576 126.212 126.971V128.289ZM129.415 128.289C129.415 128.619 129.201 128.948 128.881 128.948H127.814C127.493 128.948 127.28 128.685 127.28 128.289V126.971C127.28 126.576 127.493 126.312 127.814 126.312H128.881C129.201 126.312 129.415 126.576 129.415 126.971V128.289ZM132.617 128.289C132.617 128.619 132.403 128.948 132.083 128.948H131.016C130.695 128.948 130.482 128.685 130.482 128.289V126.971C130.482 126.576 130.695 126.312 131.016 126.312H132.083C132.403 126.312 132.617 126.576 132.617 126.971V128.289ZM135.819 128.289C135.819 128.619 135.605 128.948 135.285 128.948H134.218C133.951 128.948 133.684 128.685 133.684 128.289V126.971C133.684 126.576 133.898 126.312 134.218 126.312H135.285C135.605 126.312 135.819 126.576 135.819 126.971V128.289ZM139.021 128.289C139.021 128.619 138.807 128.948 138.487 128.948H137.42C137.1 128.948 136.886 128.685 136.886 128.289V126.971C136.886 126.576 137.1 126.312 137.42 126.312H138.487C138.807 126.312 139.021 126.576 139.021 126.971V128.289ZM142.223 128.289C142.223 128.619 142.009 128.948 141.689 128.948H140.622C140.355 128.948 140.088 128.685 140.088 128.289V126.971C140.088 126.576 140.302 126.312 140.622 126.312H141.689C141.956 126.312 142.223 126.576 142.223 126.971V128.289ZM143.29 132.243C143.29 132.638 143.077 132.902 142.757 132.902H141.689C141.369 132.902 141.156 132.638 141.156 132.243V130.925C141.156 130.596 141.369 130.266 141.689 130.266H142.757C143.023 130.266 143.29 130.53 143.29 130.925V132.243ZM140.088 132.243C140.088 132.638 139.875 132.902 139.555 132.902H138.487C138.22 132.902 137.954 132.638 137.954 132.243V130.925C137.954 130.596 138.167 130.266 138.487 130.266H139.555C139.875 130.266 140.088 130.53 140.088 130.925V132.243ZM136.886 132.243C136.886 132.638 136.673 132.902 136.352 132.902H135.285C134.965 132.902 134.751 132.638 134.751 132.243V130.925C134.751 130.596 134.965 130.266 135.285 130.266H136.352C136.619 130.266 136.886 130.53 136.886 130.925V132.243ZM133.684 132.243C133.684 132.638 133.471 132.902 133.15 132.902H132.083C131.763 132.902 131.549 132.638 131.549 132.243V130.925C131.549 130.596 131.763 130.266 132.083 130.266H133.15C133.471 130.266 133.684 130.53 133.684 130.925V132.243ZM130.482 132.243C130.482 132.638 130.268 132.902 129.948 132.902H128.881C128.614 132.902 128.347 132.638 128.347 132.243V130.925C128.347 130.596 128.561 130.266 128.881 130.266H129.948C130.268 130.266 130.482 130.53 130.482 130.925V132.243ZM127.28 132.243C127.28 132.638 127.066 132.902 126.746 132.902H125.679C125.359 132.902 125.145 132.638 125.145 132.243V130.925C125.145 130.596 125.359 130.266 125.679 130.266H126.746C127.066 130.266 127.28 130.53 127.28 130.925V132.243ZM124.078 132.243C124.078 132.638 123.864 132.902 123.544 132.902H122.477C122.157 132.902 121.943 132.638 121.943 132.243V130.925C121.943 130.596 122.157 130.266 122.477 130.266H123.544C123.864 130.266 124.078 130.53 124.078 130.925V132.243ZM125.145 136.197C125.145 136.526 124.932 136.856 124.611 136.856H123.544C123.277 136.856 123.01 136.592 123.01 136.197V134.879C123.01 134.483 123.224 134.22 123.544 134.22H124.611C124.932 134.22 125.145 134.483 125.145 134.879V136.197ZM124.078 140.15C124.078 140.48 123.864 140.809 123.544 140.809H122.477C122.157 140.809 121.943 140.546 121.943 140.15V138.833C121.943 138.437 122.157 138.174 122.477 138.174H123.544C123.864 138.174 124.078 138.437 124.078 138.833V140.15ZM127.28 140.15C127.28 140.48 127.066 140.809 126.746 140.809H125.679C125.359 140.809 125.145 140.546 125.145 140.15V138.833C125.145 138.437 125.359 138.174 125.679 138.174H126.746C127.066 138.174 127.28 138.437 127.28 138.833V140.15ZM128.347 136.197C128.347 136.526 128.134 136.856 127.814 136.856H126.746C126.426 136.856 126.212 136.592 126.212 136.197V134.879C126.212 134.483 126.426 134.22 126.746 134.22H127.814C128.134 134.22 128.347 134.483 128.347 134.879V136.197ZM131.549 136.197C131.549 136.526 131.336 136.856 131.016 136.856H129.948C129.628 136.856 129.415 136.592 129.415 136.197V134.879C129.415 134.483 129.628 134.22 129.948 134.22H131.016C131.282 134.22 131.549 134.483 131.549 134.879V136.197ZM134.751 136.197C134.751 136.526 134.538 136.856 134.218 136.856H133.15C132.83 136.856 132.617 136.592 132.617 136.197V134.879C132.617 134.483 132.83 134.22 133.15 134.22H134.218C134.538 134.22 134.751 134.483 134.751 134.879V136.197ZM137.954 136.197C137.954 136.526 137.74 136.856 137.42 136.856H136.352C136.032 136.856 135.819 136.592 135.819 136.197V134.879C135.819 134.483 136.032 134.22 136.352 134.22H137.42C137.74 134.22 137.954 134.483 137.954 134.879V136.197ZM141.156 136.197C141.156 136.526 140.942 136.856 140.622 136.856H139.555C139.288 136.856 139.021 136.592 139.021 136.197V134.879C139.021 134.483 139.234 134.22 139.555 134.22H140.622C140.889 134.22 141.156 134.483 141.156 134.879V136.197ZM142.223 140.15C142.223 140.48 142.009 140.809 141.689 140.809H140.622C140.355 140.809 140.088 140.546 140.088 140.15V138.833C140.088 138.437 140.302 138.174 140.622 138.174H141.689C141.956 138.174 142.223 138.437 142.223 138.833V140.15ZM147.56 128.289C147.56 128.619 147.346 128.948 147.079 128.948H143.771C143.504 128.948 143.29 128.685 143.29 128.289V126.971C143.29 126.576 143.504 126.312 143.771 126.312H147.079C147.346 126.312 147.56 126.576 147.56 126.971V128.289ZM147.56 140.15C147.56 140.48 147.346 140.809 147.079 140.809H143.771C143.504 140.809 143.29 140.546 143.29 140.15V138.833C143.29 138.437 143.504 138.174 143.771 138.174H147.079C147.346 138.174 147.56 138.437 147.56 138.833V140.15ZM147.56 136.197C147.56 136.526 147.346 136.856 147.133 136.856H142.65C142.436 136.856 142.223 136.592 142.223 136.197V134.879C142.223 134.483 142.436 134.22 142.65 134.22H147.133C147.4 134.22 147.56 134.483 147.56 134.879V136.197ZM121.943 136.197C121.943 136.526 121.73 136.856 121.463 136.856H118.154C117.887 136.856 117.674 136.592 117.674 136.197V134.879C117.674 134.483 117.887 134.22 118.154 134.22H121.463C121.73 134.22 121.943 134.483 121.943 134.879V136.197M147.56 132.243C147.56 132.638 147.346 132.902 147.079 132.902H144.838C144.571 132.902 144.358 132.638 144.358 132.243V130.925C144.358 130.596 144.571 130.266 144.838 130.266H147.079C147.346 130.266 147.56 130.53 147.56 130.925V132.243ZM120.876 132.243C120.876 132.638 120.662 132.902 120.395 132.902H118.154C117.887 132.902 117.674 132.638 117.674 132.243V130.925C117.674 130.596 117.887 130.266 118.154 130.266H120.395C120.662 130.266 120.876 130.53 120.876 130.925V132.243M120.876 140.15C120.876 140.48 120.662 140.809 120.395 140.809H118.154C117.887 140.809 117.674 140.48 117.674 140.15V138.833C117.674 138.503 117.887 138.174 118.154 138.174H120.395C120.662 138.174 120.876 138.437 120.876 138.833V140.15ZM139.021 140.15C139.021 140.48 138.807 140.809 138.594 140.809H128.774C128.507 140.809 128.347 140.546 128.347 140.15V138.833C128.347 138.503 128.561 138.174 128.774 138.174H138.541C138.807 138.174 138.968 138.437 138.968 138.833V140.15H139.021ZM120.289 124.994H119.328C118.581 124.994 118.581 123.676 119.328 123.676H120.289C121.089 123.676 121.089 124.994 120.289 124.994ZM123.491 124.994H122.477C121.73 124.994 121.73 123.676 122.477 123.676H123.491C124.291 123.676 124.291 124.994 123.491 124.994ZM126.693 124.994H125.679C124.932 124.994 124.932 123.676 125.679 123.676H126.693C127.493 123.676 127.493 124.994 126.693 124.994ZM129.895 124.994H128.934C128.187 124.994 128.187 123.676 128.934 123.676H129.895C130.695 123.676 130.695 124.994 129.895 124.994ZM133.097 124.994H132.136C131.389 124.994 131.389 123.676 132.136 123.676H133.097C133.898 123.676 133.898 124.994 133.097 124.994ZM136.299 124.994H135.338C134.591 124.994 134.591 123.676 135.338 123.676H136.299C137.1 123.676 137.1 124.994 136.299 124.994ZM139.501 124.994H138.541C137.793 124.994 137.793 123.676 138.541 123.676H139.501C140.302 123.676 140.302 124.994 139.501 124.994ZM142.703 124.994H141.743C140.995 124.994 140.995 123.676 141.743 123.676H142.703C143.504 123.676 143.504 124.994 142.703 124.994ZM145.905 124.994H144.945C144.198 124.994 144.198 123.676 144.945 123.676H145.905C146.706 123.676 146.706 124.994 145.905 124.994Z" fill="white"/>
<rect x="107" y="96" width="53.3682" height="5.2717" fill="#D9D9D9"/>
<rect x="168.907" y="96" width="12.2747" height="26.3585" fill="#D9D9D9"/>
<defs>
<clipPath id="clip0_19_210">
<rect width="20.5143" height="26.6667" fill="white" transform="translate(44.9091 64.7411) rotate(90)"/>
</clipPath>
<clipPath id="clip1_19_210">
<rect width="41.0286" height="42.6667" fill="white" transform="translate(59.5758 21.1482) rotate(90)"/>
</clipPath>
<clipPath id="clip2_19_210">
<rect width="16.3" height="27.4747" fill="white" transform="translate(50.1211 163.955) rotate(90)"/>
</clipPath>
<clipPath id="clip3_19_210">
<rect width="32.5999" height="43.9596" fill="white" transform="translate(65.2322 129.318) rotate(90)"/>
</clipPath>
<clipPath id="clip4_19_210">
<rect width="17.0778" height="26.764" fill="white" transform="translate(130.353 44.7007) rotate(-180)"/>
</clipPath>
<clipPath id="clip5_19_210">
<rect width="17.0778" height="26.3585" fill="white" transform="translate(151.829 115.769)"/>
</clipPath>
</defs>
</svg>
