<svg width="200" height="200" viewBox="0 0 200 200" fill="none" xmlns="http://www.w3.org/2000/svg">
<rect width="200" height="200" rx="10" fill="#063455"/>
<g clip-path="url(#clip0_4_194)">
<path d="M169.803 122.873C168.449 123.537 166.282 123.331 164.546 123.195C163.594 123.122 162.861 122.903 161.871 122.924C161.106 122.941 160.343 123.254 159.764 123.449C157.485 124.214 155.914 123.177 154.095 122.673C152.25 122.161 149.978 122.535 148.116 122.06C147.38 121.873 146.591 122.359 147.336 122.549C149.433 123.085 151.948 122.723 153.929 123.343C155.549 123.851 157.011 124.617 159.207 124.266C160.26 124.098 161.016 123.647 162.089 123.52C162.667 123.454 163.537 123.73 164.118 123.776C164.645 123.816 165.175 123.857 165.706 123.891C167.641 124.014 169.492 123.906 170.871 123.232C171.456 122.945 170.376 122.592 169.802 122.873" fill="#D7D8DA"/>
<path d="M175.172 120.726C178.723 120.724 181.601 122.042 181.601 123.665C181.601 125.288 178.723 126.604 175.17 126.605L165.961 126.604C162.411 126.604 159.53 125.288 159.532 123.664C159.532 122.041 162.412 120.726 165.961 120.726H175.175" fill="#D9D9D9"/>
<path d="M159.825 122.784C159.63 123.069 159.531 123.366 159.532 123.664C159.53 125.288 162.411 126.604 165.961 126.604L175.17 126.605C178.723 126.604 181.601 125.288 181.601 123.665C181.601 123.273 181.432 122.899 181.126 122.557C174.679 124.041 166.614 124.044 159.823 122.784" fill="#D7D8DA"/>
<path d="M160.61 123.664C160.609 124.977 162.492 126.054 164.928 126.234C167.361 126.052 169.238 124.977 169.238 123.665C169.236 122.353 167.357 121.276 164.921 121.097C162.487 121.278 160.61 122.353 160.61 123.664" fill="#E6E7E8"/>
</g>
<g clip-path="url(#clip1_4_194)">
<path d="M155.679 148.932V149.426C143.148 149.426 143.148 152.29 143.148 155.353C143.148 158.514 143.148 161.774 129.753 161.774V161.28C142.284 161.28 142.284 158.415 142.284 155.353C142.284 152.192 142.284 148.932 155.679 148.932Z" fill="#94989B"/>
<path d="M179.012 134.608C180.481 134.608 181.605 135.25 181.605 135.991V162.861C181.605 163.601 180.481 164.244 179.012 164.244H158.272C156.802 164.244 155.679 163.601 155.679 162.861V135.991C155.679 135.2 156.802 134.608 158.272 134.608H179.012V134.608Z" fill="#D0D0D0"/>
<path d="M163.457 161.28C163.889 161.28 164.321 161.478 164.321 161.774V162.762C164.321 163.058 163.975 163.256 163.457 163.256H161.728C161.21 163.256 160.864 163.058 160.864 162.762V161.774C160.864 161.478 161.21 161.28 161.728 161.28H163.457ZM163.457 158.316C163.889 158.316 164.321 158.514 164.321 158.81V159.798C164.321 160.094 163.975 160.292 163.457 160.292H161.728C161.21 160.292 160.864 160.094 160.864 159.798V158.81C160.864 158.514 161.21 158.316 161.728 158.316H163.457ZM163.457 155.353C163.889 155.353 164.321 155.55 164.321 155.847V156.835C164.321 157.131 163.975 157.328 163.457 157.328H161.728C161.21 157.328 160.864 157.131 160.864 156.835V155.847C160.864 155.55 161.21 155.353 161.728 155.353H163.457ZM163.457 152.389C163.889 152.389 164.321 152.587 164.321 152.883V153.871C164.321 154.167 163.975 154.365 163.457 154.365H161.728C161.21 154.365 160.864 154.167 160.864 153.871V152.883C160.864 152.587 161.21 152.389 161.728 152.389H163.457ZM163.457 149.426C163.889 149.426 164.321 149.623 164.321 149.919V150.907C164.321 151.204 163.975 151.401 163.457 151.401H161.728C161.21 151.401 160.864 151.204 160.864 150.907V149.919C160.864 149.623 161.21 149.426 161.728 149.426H163.457ZM163.457 146.462C163.889 146.462 164.321 146.66 164.321 146.956V147.944C164.321 148.191 163.975 148.438 163.457 148.438H161.728C161.21 148.438 160.864 148.24 160.864 147.944V146.956C160.864 146.66 161.21 146.462 161.728 146.462H163.457ZM163.457 143.498C163.889 143.498 164.321 143.696 164.321 143.992V144.98C164.321 145.276 163.975 145.474 163.457 145.474H161.728C161.21 145.474 160.864 145.276 160.864 144.98V143.992C160.864 143.696 161.21 143.498 161.728 143.498H163.457ZM163.457 140.535C163.889 140.535 164.321 140.732 164.321 141.029V142.017C164.321 142.263 163.975 142.51 163.457 142.51H161.728C161.21 142.51 160.864 142.313 160.864 142.017V141.029C160.864 140.782 161.21 140.535 161.728 140.535H163.457ZM168.642 139.547C169.16 139.547 169.506 139.744 169.506 140.041V141.029C169.506 141.325 169.16 141.523 168.642 141.523H166.914C166.481 141.523 166.049 141.325 166.049 141.029V140.041C166.049 139.794 166.395 139.547 166.914 139.547H168.642ZM168.642 142.51C169.16 142.51 169.506 142.708 169.506 143.004V143.992C169.506 144.239 169.16 144.486 168.642 144.486H166.914C166.481 144.486 166.049 144.289 166.049 143.992V143.004C166.049 142.708 166.395 142.51 166.914 142.51H168.642ZM168.642 145.474C169.16 145.474 169.506 145.672 169.506 145.968V146.956C169.506 147.252 169.16 147.45 168.642 147.45H166.914C166.481 147.45 166.049 147.252 166.049 146.956V145.968C166.049 145.721 166.395 145.474 166.914 145.474H168.642ZM168.642 148.438C169.16 148.438 169.506 148.635 169.506 148.932V149.919C169.506 150.216 169.16 150.413 168.642 150.413H166.914C166.481 150.413 166.049 150.216 166.049 149.919V148.932C166.049 148.635 166.395 148.438 166.914 148.438H168.642ZM168.642 151.401C169.16 151.401 169.506 151.599 169.506 151.895V152.883C169.506 153.13 169.16 153.377 168.642 153.377H166.914C166.481 153.377 166.049 153.179 166.049 152.883V151.895C166.049 151.599 166.395 151.401 166.914 151.401H168.642ZM168.642 154.365C169.16 154.365 169.506 154.562 169.506 154.859V155.847C169.506 156.143 169.16 156.341 168.642 156.341H166.914C166.481 156.341 166.049 156.143 166.049 155.847V154.859C166.049 154.562 166.395 154.365 166.914 154.365H168.642ZM168.642 157.328C169.16 157.328 169.506 157.526 169.506 157.822V158.81C169.506 159.107 169.16 159.304 168.642 159.304H166.914C166.481 159.304 166.049 159.107 166.049 158.81V157.822C166.049 157.526 166.395 157.328 166.914 157.328H168.642ZM173.827 156.341C174.259 156.341 174.691 156.538 174.691 156.835V157.822C174.691 158.069 174.346 158.316 173.827 158.316H172.099C171.58 158.316 171.235 158.119 171.235 157.822V156.835C171.235 156.538 171.58 156.341 172.099 156.341H173.827ZM179.012 157.328C179.444 157.328 179.877 157.526 179.877 157.822V158.81C179.877 159.107 179.531 159.304 179.012 159.304H177.284C176.765 159.304 176.42 159.107 176.42 158.81V157.822C176.42 157.526 176.765 157.328 177.284 157.328H179.012ZM179.012 154.365C179.444 154.365 179.877 154.562 179.877 154.859V155.847C179.877 156.143 179.531 156.341 179.012 156.341H177.284C176.765 156.341 176.42 156.143 176.42 155.847V154.859C176.42 154.562 176.765 154.365 177.284 154.365H179.012ZM173.827 153.377C174.259 153.377 174.691 153.575 174.691 153.871V154.859C174.691 155.155 174.346 155.353 173.827 155.353H172.099C171.58 155.353 171.235 155.155 171.235 154.859V153.871C171.235 153.575 171.58 153.377 172.099 153.377H173.827ZM173.827 150.413C174.259 150.413 174.691 150.611 174.691 150.907V151.895C174.691 152.192 174.346 152.389 173.827 152.389H172.099C171.58 152.389 171.235 152.192 171.235 151.895V150.907C171.235 150.66 171.58 150.413 172.099 150.413H173.827ZM173.827 147.45C174.259 147.45 174.691 147.647 174.691 147.944V148.932C174.691 149.228 174.346 149.426 173.827 149.426H172.099C171.58 149.426 171.235 149.228 171.235 148.932V147.944C171.235 147.647 171.58 147.45 172.099 147.45H173.827ZM173.827 144.486C174.259 144.486 174.691 144.684 174.691 144.98V145.968C174.691 146.264 174.346 146.462 173.827 146.462H172.099C171.58 146.462 171.235 146.264 171.235 145.968V144.98C171.235 144.684 171.58 144.486 172.099 144.486H173.827ZM173.827 141.523C174.259 141.523 174.691 141.72 174.691 142.017V143.004C174.691 143.251 174.346 143.498 173.827 143.498H172.099C171.58 143.498 171.235 143.301 171.235 143.004V142.017C171.235 141.77 171.58 141.523 172.099 141.523H173.827ZM179.012 140.535C179.444 140.535 179.877 140.732 179.877 141.029V142.017C179.877 142.263 179.531 142.51 179.012 142.51H177.284C176.765 142.51 176.42 142.313 176.42 142.017V141.029C176.42 140.782 176.765 140.535 177.284 140.535H179.012ZM163.457 135.595C163.889 135.595 164.321 135.793 164.321 136.04V139.102C164.321 139.349 163.975 139.547 163.457 139.547H161.728C161.21 139.547 160.864 139.349 160.864 139.102V136.04C160.864 135.793 161.21 135.595 161.728 135.595H163.457ZM179.012 135.595C179.444 135.595 179.877 135.793 179.877 136.04V139.102C179.877 139.349 179.531 139.547 179.012 139.547H177.284C176.765 139.547 176.42 139.349 176.42 139.102V136.04C176.42 135.793 176.765 135.595 177.284 135.595H179.012ZM173.827 135.595C174.259 135.595 174.691 135.793 174.691 135.991V140.14C174.691 140.337 174.346 140.535 173.827 140.535H172.099C171.58 140.535 171.235 140.337 171.235 140.14V135.991C171.235 135.744 171.58 135.595 172.099 135.595H173.827ZM173.827 159.304C174.259 159.304 174.691 159.502 174.691 159.749V162.811C174.691 163.058 174.346 163.256 173.827 163.256H172.099C171.58 163.256 171.235 163.058 171.235 162.811V159.749C171.235 159.502 171.58 159.304 172.099 159.304H173.827M168.642 135.595C169.16 135.595 169.506 135.793 169.506 136.04V138.114C169.506 138.361 169.16 138.559 168.642 138.559H166.914C166.481 138.559 166.049 138.361 166.049 138.114V136.04C166.049 135.793 166.395 135.595 166.914 135.595H168.642ZM168.642 160.292C169.16 160.292 169.506 160.49 169.506 160.737V162.811C169.506 163.058 169.16 163.256 168.642 163.256H166.914C166.481 163.256 166.049 163.058 166.049 162.811V160.737C166.049 160.49 166.395 160.292 166.914 160.292H168.642M179.012 160.292C179.444 160.292 179.877 160.49 179.877 160.737V162.811C179.877 163.058 179.444 163.256 179.012 163.256H177.284C176.852 163.256 176.42 163.058 176.42 162.811V160.737C176.42 160.49 176.765 160.292 177.284 160.292H179.012ZM179.012 143.498C179.444 143.498 179.877 143.696 179.877 143.893V152.982C179.877 153.229 179.531 153.377 179.012 153.377H177.284C176.852 153.377 176.42 153.179 176.42 152.982V143.943C176.42 143.696 176.765 143.548 177.284 143.548H179.012V143.498ZM159.136 160.835V161.724C159.136 162.416 157.407 162.416 157.407 161.724V160.835C157.407 160.094 159.136 160.094 159.136 160.835ZM159.136 157.872V158.81C159.136 159.502 157.407 159.502 157.407 158.81V157.872C157.407 157.131 159.136 157.131 159.136 157.872ZM159.136 154.908V155.847C159.136 156.538 157.407 156.538 157.407 155.847V154.908C157.407 154.167 159.136 154.167 159.136 154.908ZM159.136 151.945V152.834C159.136 153.525 157.407 153.525 157.407 152.834V151.945C157.407 151.204 159.136 151.204 159.136 151.945ZM159.136 148.981V149.87C159.136 150.562 157.407 150.562 157.407 149.87V148.981C157.407 148.24 159.136 148.24 159.136 148.981ZM159.136 146.017V146.906C159.136 147.598 157.407 147.598 157.407 146.906V146.017C157.407 145.276 159.136 145.276 159.136 146.017ZM159.136 143.054V143.943C159.136 144.634 157.407 144.634 157.407 143.943V143.054C157.407 142.313 159.136 142.313 159.136 143.054ZM159.136 140.09V140.979C159.136 141.671 157.407 141.671 157.407 140.979V140.09C157.407 139.349 159.136 139.349 159.136 140.09ZM159.136 137.127V138.016C159.136 138.707 157.407 138.707 157.407 138.016V137.127C157.407 136.386 159.136 136.386 159.136 137.127Z" fill="white"/>
</g>
<rect x="121.111" y="173.134" width="49.3933" height="6.91358" rx="3.45679" transform="rotate(-90 121.111 173.134)" fill="#D9D9D9"/>
<rect x="121.111" y="115.838" width="11.3605" height="34.5679" rx="5.68023" transform="rotate(-90 121.111 115.838)" fill="#D9D9D9"/>
<g clip-path="url(#clip2_4_194)">
<path d="M169.803 33.3209C168.449 33.9848 166.282 33.7788 164.546 33.6432C163.594 33.5699 162.861 33.3508 161.871 33.3718C161.106 33.3884 160.343 33.7018 159.764 33.8969C157.485 34.662 155.914 33.6247 154.095 33.1209C152.25 32.6084 149.978 32.9831 148.116 32.5079C147.38 32.3205 146.591 32.807 147.336 32.9969C149.433 33.5328 151.948 33.1705 153.929 33.7912C155.549 34.2992 157.011 35.0645 159.207 34.7141C160.26 34.5461 161.016 34.0947 162.089 33.9682C162.667 33.9013 163.537 34.1782 164.118 34.2234C164.645 34.2634 165.175 34.3044 165.706 34.3387C167.641 34.4617 169.492 34.3543 170.871 33.6798C171.456 33.3928 170.376 33.0397 169.802 33.3205" fill="#D7D8DA"/>
<path d="M175.172 31.1733C178.723 31.1721 181.601 32.4901 181.601 34.113C181.601 35.736 178.723 37.0519 175.17 37.0529L165.961 37.0519C162.411 37.0519 159.53 35.7353 159.532 34.112C159.532 32.4887 162.412 31.1733 165.961 31.1733H175.175" fill="#D9D9D9"/>
<path d="M159.825 33.2323C159.63 33.517 159.531 33.8138 159.532 34.1122C159.53 35.7358 162.411 37.0521 165.961 37.0521L175.17 37.0531C178.723 37.0521 181.601 35.736 181.601 34.1132C181.601 33.7208 181.432 33.3469 181.126 33.0048C174.679 34.4891 166.614 34.4916 159.823 33.2323" fill="#D7D8DA"/>
<path d="M160.61 34.1122C160.609 35.4249 162.492 36.5016 164.928 36.6822C167.361 36.4997 169.238 35.4249 169.238 34.1132C169.236 32.8008 167.357 31.7233 164.921 31.5445C162.487 31.7258 160.61 32.8008 160.61 34.1122" fill="#E6E7E8"/>
</g>
<g clip-path="url(#clip3_4_194)">
<path d="M155.679 59.3794V59.8733C143.148 59.8733 143.148 62.7381 143.148 65.8005C143.148 68.9617 143.148 72.2216 129.753 72.2216V71.7277C142.284 71.7277 142.284 68.8629 142.284 65.8005C142.284 62.6393 142.284 59.3794 155.679 59.3794Z" fill="#94989B"/>
<path d="M179.012 45.0553C180.481 45.0553 181.605 45.6974 181.605 46.4383V73.3083C181.605 74.0492 180.481 74.6913 179.012 74.6913H158.272C156.802 74.6913 155.679 74.0492 155.679 73.3083V46.4383C155.679 45.648 156.802 45.0553 158.272 45.0553H179.012V45.0553Z" fill="#D0D0D0"/>
<path d="M163.457 71.7277C163.889 71.7277 164.321 71.9253 164.321 72.2216V73.2095C164.321 73.5059 163.975 73.7034 163.457 73.7034H161.728C161.21 73.7034 160.864 73.5059 160.864 73.2095V72.2216C160.864 71.9253 161.21 71.7277 161.728 71.7277H163.457ZM163.457 68.7641C163.889 68.7641 164.321 68.9617 164.321 69.258V70.2459C164.321 70.5423 163.975 70.7398 163.457 70.7398H161.728C161.21 70.7398 160.864 70.5423 160.864 70.2459V69.258C160.864 68.9617 161.21 68.7641 161.728 68.7641H163.457ZM163.457 65.8005C163.889 65.8005 164.321 65.9981 164.321 66.2944V67.2823C164.321 67.5787 163.975 67.7762 163.457 67.7762H161.728C161.21 67.7762 160.864 67.5787 160.864 67.2823V66.2944C160.864 65.9981 161.21 65.8005 161.728 65.8005H163.457ZM163.457 62.8369C163.889 62.8369 164.321 63.0345 164.321 63.3308V64.3187C164.321 64.6151 163.975 64.8126 163.457 64.8126H161.728C161.21 64.8126 160.864 64.6151 160.864 64.3187V63.3308C160.864 63.0345 161.21 62.8369 161.728 62.8369H163.457ZM163.457 59.8733C163.889 59.8733 164.321 60.0709 164.321 60.3672V61.3551C164.321 61.6515 163.975 61.849 163.457 61.849H161.728C161.21 61.849 160.864 61.6515 160.864 61.3551V60.3672C160.864 60.0709 161.21 59.8733 161.728 59.8733H163.457ZM163.457 56.9097C163.889 56.9097 164.321 57.1073 164.321 57.4036V58.3915C164.321 58.6385 163.975 58.8854 163.457 58.8854H161.728C161.21 58.8854 160.864 58.6879 160.864 58.3915V57.4036C160.864 57.1073 161.21 56.9097 161.728 56.9097H163.457ZM163.457 53.9461C163.889 53.9461 164.321 54.1437 164.321 54.44V55.4279C164.321 55.7243 163.975 55.9218 163.457 55.9218H161.728C161.21 55.9218 160.864 55.7243 160.864 55.4279V54.44C160.864 54.1437 161.21 53.9461 161.728 53.9461H163.457ZM163.457 50.9825C163.889 50.9825 164.321 51.1801 164.321 51.4764V52.4643C164.321 52.7113 163.975 52.9582 163.457 52.9582H161.728C161.21 52.9582 160.864 52.7607 160.864 52.4643V51.4764C160.864 51.2295 161.21 50.9825 161.728 50.9825H163.457ZM168.642 49.9946C169.16 49.9946 169.506 50.1922 169.506 50.4886V51.4764C169.506 51.7728 169.16 51.9704 168.642 51.9704H166.914C166.481 51.9704 166.049 51.7728 166.049 51.4764V50.4886C166.049 50.2416 166.395 49.9946 166.914 49.9946H168.642ZM168.642 52.9582C169.16 52.9582 169.506 53.1558 169.506 53.4522V54.44C169.506 54.687 169.16 54.934 168.642 54.934H166.914C166.481 54.934 166.049 54.7364 166.049 54.44V53.4522C166.049 53.1558 166.395 52.9582 166.914 52.9582H168.642ZM168.642 55.9218C169.16 55.9218 169.506 56.1194 169.506 56.4158V57.4036C169.506 57.7 169.16 57.8976 168.642 57.8976H166.914C166.481 57.8976 166.049 57.7 166.049 57.4036V56.4158C166.049 56.1688 166.395 55.9218 166.914 55.9218H168.642ZM168.642 58.8854C169.16 58.8854 169.506 59.083 169.506 59.3794V60.3672C169.506 60.6636 169.16 60.8612 168.642 60.8612H166.914C166.481 60.8612 166.049 60.6636 166.049 60.3672V59.3794C166.049 59.083 166.395 58.8854 166.914 58.8854H168.642ZM168.642 61.849C169.16 61.849 169.506 62.0466 169.506 62.343V63.3308C169.506 63.5778 169.16 63.8248 168.642 63.8248H166.914C166.481 63.8248 166.049 63.6272 166.049 63.3308V62.343C166.049 62.0466 166.395 61.849 166.914 61.849H168.642ZM168.642 64.8126C169.16 64.8126 169.506 65.0102 169.506 65.3066V66.2944C169.506 66.5908 169.16 66.7884 168.642 66.7884H166.914C166.481 66.7884 166.049 66.5908 166.049 66.2944V65.3066C166.049 65.0102 166.395 64.8126 166.914 64.8126H168.642ZM168.642 67.7762C169.16 67.7762 169.506 67.9738 169.506 68.2702V69.258C169.506 69.5544 169.16 69.752 168.642 69.752H166.914C166.481 69.752 166.049 69.5544 166.049 69.258V68.2702C166.049 67.9738 166.395 67.7762 166.914 67.7762H168.642ZM173.827 66.7884C174.259 66.7884 174.691 66.9859 174.691 67.2823V68.2702C174.691 68.5171 174.346 68.7641 173.827 68.7641H172.099C171.58 68.7641 171.235 68.5665 171.235 68.2702V67.2823C171.235 66.9859 171.58 66.7884 172.099 66.7884H173.827ZM179.012 67.7762C179.444 67.7762 179.877 67.9738 179.877 68.2702V69.258C179.877 69.5544 179.531 69.752 179.012 69.752H177.284C176.765 69.752 176.42 69.5544 176.42 69.258V68.2702C176.42 67.9738 176.765 67.7762 177.284 67.7762H179.012ZM179.012 64.8126C179.444 64.8126 179.877 65.0102 179.877 65.3066V66.2944C179.877 66.5908 179.531 66.7884 179.012 66.7884H177.284C176.765 66.7884 176.42 66.5908 176.42 66.2944V65.3066C176.42 65.0102 176.765 64.8126 177.284 64.8126H179.012ZM173.827 63.8248C174.259 63.8248 174.691 64.0223 174.691 64.3187V65.3066C174.691 65.6029 174.346 65.8005 173.827 65.8005H172.099C171.58 65.8005 171.235 65.6029 171.235 65.3066V64.3187C171.235 64.0223 171.58 63.8248 172.099 63.8248H173.827ZM173.827 60.8612C174.259 60.8612 174.691 61.0587 174.691 61.3551V62.343C174.691 62.6393 174.346 62.8369 173.827 62.8369H172.099C171.58 62.8369 171.235 62.6393 171.235 62.343V61.3551C171.235 61.1081 171.58 60.8612 172.099 60.8612H173.827ZM173.827 57.8976C174.259 57.8976 174.691 58.0951 174.691 58.3915V59.3794C174.691 59.6757 174.346 59.8733 173.827 59.8733H172.099C171.58 59.8733 171.235 59.6757 171.235 59.3794V58.3915C171.235 58.0951 171.58 57.8976 172.099 57.8976H173.827ZM173.827 54.934C174.259 54.934 174.691 55.1315 174.691 55.4279V56.4158C174.691 56.7121 174.346 56.9097 173.827 56.9097H172.099C171.58 56.9097 171.235 56.7121 171.235 56.4158V55.4279C171.235 55.1315 171.58 54.934 172.099 54.934H173.827ZM173.827 51.9704C174.259 51.9704 174.691 52.1679 174.691 52.4643V53.4522C174.691 53.6991 174.346 53.9461 173.827 53.9461H172.099C171.58 53.9461 171.235 53.7485 171.235 53.4522V52.4643C171.235 52.2173 171.58 51.9704 172.099 51.9704H173.827ZM179.012 50.9825C179.444 50.9825 179.877 51.1801 179.877 51.4764V52.4643C179.877 52.7113 179.531 52.9582 179.012 52.9582H177.284C176.765 52.9582 176.42 52.7607 176.42 52.4643V51.4764C176.42 51.2295 176.765 50.9825 177.284 50.9825H179.012ZM163.457 46.0432C163.889 46.0432 164.321 46.2407 164.321 46.4877V49.5501C164.321 49.7971 163.975 49.9946 163.457 49.9946H161.728C161.21 49.9946 160.864 49.7971 160.864 49.5501V46.4877C160.864 46.2407 161.21 46.0432 161.728 46.0432H163.457ZM179.012 46.0432C179.444 46.0432 179.877 46.2407 179.877 46.4877V49.5501C179.877 49.7971 179.531 49.9946 179.012 49.9946H177.284C176.765 49.9946 176.42 49.7971 176.42 49.5501V46.4877C176.42 46.2407 176.765 46.0432 177.284 46.0432H179.012ZM173.827 46.0432C174.259 46.0432 174.691 46.2407 174.691 46.4383V50.5874C174.691 50.7849 174.346 50.9825 173.827 50.9825H172.099C171.58 50.9825 171.235 50.7849 171.235 50.5874V46.4383C171.235 46.1913 171.58 46.0432 172.099 46.0432H173.827ZM173.827 69.752C174.259 69.752 174.691 69.9495 174.691 70.1965V73.2589C174.691 73.5059 174.346 73.7034 173.827 73.7034H172.099C171.58 73.7034 171.235 73.5059 171.235 73.2589V70.1965C171.235 69.9495 171.58 69.752 172.099 69.752H173.827M168.642 46.0432C169.16 46.0432 169.506 46.2407 169.506 46.4877V48.5622C169.506 48.8092 169.16 49.0068 168.642 49.0068H166.914C166.481 49.0068 166.049 48.8092 166.049 48.5622V46.4877C166.049 46.2407 166.395 46.0432 166.914 46.0432H168.642ZM168.642 70.7398C169.16 70.7398 169.506 70.9374 169.506 71.1844V73.2589C169.506 73.5059 169.16 73.7034 168.642 73.7034H166.914C166.481 73.7034 166.049 73.5059 166.049 73.2589V71.1844C166.049 70.9374 166.395 70.7398 166.914 70.7398H168.642M179.012 70.7398C179.444 70.7398 179.877 70.9374 179.877 71.1844V73.2589C179.877 73.5059 179.444 73.7034 179.012 73.7034H177.284C176.852 73.7034 176.42 73.5059 176.42 73.2589V71.1844C176.42 70.9374 176.765 70.7398 177.284 70.7398H179.012ZM179.012 53.9461C179.444 53.9461 179.877 54.1437 179.877 54.3412V63.4296C179.877 63.6766 179.531 63.8248 179.012 63.8248H177.284C176.852 63.8248 176.42 63.6272 176.42 63.4296V54.3906C176.42 54.1437 176.765 53.9955 177.284 53.9955H179.012V53.9461ZM159.136 71.2832V72.1722C159.136 72.8637 157.407 72.8637 157.407 72.1722V71.2832C157.407 70.5423 159.136 70.5423 159.136 71.2832ZM159.136 68.3196V69.258C159.136 69.9495 157.407 69.9495 157.407 69.258V68.3196C157.407 67.5787 159.136 67.5787 159.136 68.3196ZM159.136 65.356V66.2944C159.136 66.9859 157.407 66.9859 157.407 66.2944V65.356C157.407 64.6151 159.136 64.6151 159.136 65.356ZM159.136 62.3924V63.2814C159.136 63.9729 157.407 63.9729 157.407 63.2814V62.3924C157.407 61.6515 159.136 61.6515 159.136 62.3924ZM159.136 59.4288V60.3178C159.136 61.0093 157.407 61.0093 157.407 60.3178V59.4288C157.407 58.6879 159.136 58.6879 159.136 59.4288ZM159.136 56.4652V57.3542C159.136 58.0457 157.407 58.0457 157.407 57.3542V56.4652C157.407 55.7243 159.136 55.7243 159.136 56.4652ZM159.136 53.5016V54.3906C159.136 55.0821 157.407 55.0821 157.407 54.3906V53.5016C157.407 52.7607 159.136 52.7607 159.136 53.5016ZM159.136 50.538V51.427C159.136 52.1185 157.407 52.1185 157.407 51.427V50.538C157.407 49.7971 159.136 49.7971 159.136 50.538ZM159.136 47.5744V48.4634C159.136 49.1549 157.407 49.1549 157.407 48.4634V47.5744C157.407 46.8335 159.136 46.8335 159.136 47.5744Z" fill="white"/>
</g>
<rect x="121.111" y="83.5821" width="49.3933" height="6.91358" rx="3.45679" transform="rotate(-90 121.111 83.5821)" fill="#D9D9D9"/>
<rect x="121.111" y="26.2858" width="11.3605" height="34.5679" rx="5.68023" transform="rotate(-90 121.111 26.2858)" fill="#D9D9D9"/>
<g clip-path="url(#clip4_4_194)">
<path d="M36.8633 154.739C38.2179 154.075 40.3844 154.281 42.1209 154.416C43.0731 154.49 43.8055 154.709 44.7961 154.688C45.5604 154.671 46.3241 154.358 46.9031 154.163C49.1814 153.398 50.7526 154.435 52.5717 154.939C54.4163 155.451 56.6891 155.077 58.5509 155.552C59.2865 155.739 60.0757 155.253 59.3303 155.063C57.2335 154.527 54.7187 154.889 52.7381 154.269C51.1177 153.761 49.6561 152.995 47.4595 153.346C46.4068 153.514 45.6511 153.965 44.5774 154.091C44 154.158 43.1298 153.882 42.5492 153.836C42.0215 153.796 41.4922 153.755 40.9607 153.721C39.0254 153.598 37.1744 153.705 35.7955 154.38C35.2105 154.667 36.2908 155.02 36.8644 154.739" fill="#D7D8DA"/>
<path d="M31.4946 156.886C27.9438 156.888 25.066 155.57 25.066 153.947C25.066 152.324 27.9438 151.008 31.4967 151.007L40.7058 151.008C44.2561 151.008 47.1366 152.324 47.1344 153.948C47.1344 155.571 44.255 156.886 40.7058 156.886H31.4913" fill="#D9D9D9"/>
<path d="M46.8417 154.827C47.0369 154.543 47.1357 154.246 47.1344 153.948C47.1366 152.324 44.2561 151.008 40.7059 151.008L31.4968 151.007C27.9439 151.008 25.0661 152.324 25.0661 153.947C25.0661 154.339 25.2346 154.713 25.5403 155.055C31.9878 153.571 40.0529 153.568 46.8433 154.827" fill="#D7D8DA"/>
<path d="M46.0563 153.947C46.0574 152.635 44.1751 151.558 41.7391 151.378C39.3059 151.56 37.4284 152.635 37.4284 153.947C37.4306 155.259 39.3097 156.336 41.7456 156.515C44.1794 156.334 46.0563 155.259 46.0563 153.947" fill="#E6E7E8"/>
</g>
<g clip-path="url(#clip5_4_194)">
<path d="M50.9876 128.68V128.186C63.5185 128.186 63.5185 125.322 63.5185 122.259C63.5185 119.098 63.5185 115.838 76.9136 115.838V116.332C64.3827 116.332 64.3827 119.197 64.3827 122.259C64.3827 125.42 64.3827 128.68 50.9876 128.68Z" fill="#94989B"/>
<path d="M27.6543 143.004C26.1852 143.004 25.0617 142.362 25.0617 141.621L25.0617 114.751C25.0617 114.011 26.1852 113.368 27.6543 113.368H48.3951C49.8642 113.368 50.9877 114.011 50.9877 114.751L50.9877 141.621C50.9877 142.412 49.8642 143.004 48.3951 143.004H27.6543V143.004Z" fill="#D0D0D0"/>
<path d="M43.2099 116.332C42.7778 116.332 42.3457 116.134 42.3457 115.838V114.85C42.3457 114.554 42.6914 114.356 43.2099 114.356H44.9383C45.4568 114.356 45.8025 114.554 45.8025 114.85V115.838C45.8025 116.134 45.4568 116.332 44.9383 116.332H43.2099ZM43.2099 119.296C42.7778 119.296 42.3457 119.098 42.3457 118.802V117.814C42.3457 117.517 42.6914 117.32 43.2099 117.32H44.9383C45.4568 117.32 45.8025 117.517 45.8025 117.814V118.802C45.8025 119.098 45.4568 119.296 44.9383 119.296H43.2099ZM43.2099 122.259C42.7778 122.259 42.3457 122.062 42.3457 121.765V120.777C42.3457 120.481 42.6914 120.283 43.2099 120.283H44.9383C45.4568 120.283 45.8025 120.481 45.8025 120.777V121.765C45.8025 122.062 45.4568 122.259 44.9383 122.259H43.2099ZM43.2099 125.223C42.7778 125.223 42.3457 125.025 42.3457 124.729V123.741C42.3457 123.445 42.6914 123.247 43.2099 123.247H44.9383C45.4568 123.247 45.8025 123.445 45.8025 123.741V124.729C45.8025 125.025 45.4568 125.223 44.9383 125.223H43.2099ZM43.2099 128.186C42.7778 128.186 42.3457 127.989 42.3457 127.692V126.705C42.3457 126.408 42.6914 126.211 43.2099 126.211H44.9383C45.4568 126.211 45.8025 126.408 45.8025 126.705V127.692C45.8025 127.989 45.4568 128.186 44.9383 128.186H43.2099ZM43.2099 131.15C42.7778 131.15 42.3457 130.952 42.3457 130.656L42.3457 129.668C42.3457 129.421 42.6914 129.174 43.2099 129.174H44.9383C45.4568 129.174 45.8025 129.372 45.8025 129.668V130.656C45.8025 130.952 45.4568 131.15 44.9383 131.15H43.2099ZM43.2099 134.114C42.7778 134.114 42.3457 133.916 42.3457 133.62V132.632C42.3457 132.335 42.6914 132.138 43.2099 132.138H44.9383C45.4568 132.138 45.8025 132.335 45.8025 132.632V133.62C45.8025 133.916 45.4568 134.114 44.9383 134.114H43.2099ZM43.2099 137.077C42.7778 137.077 42.3457 136.88 42.3457 136.583V135.595C42.3457 135.348 42.6914 135.101 43.2099 135.101H44.9383C45.4568 135.101 45.8025 135.299 45.8025 135.595V136.583C45.8025 136.83 45.4568 137.077 44.9383 137.077H43.2099ZM38.0247 138.065C37.5062 138.065 37.1605 137.868 37.1605 137.571V136.583C37.1605 136.287 37.5062 136.089 38.0247 136.089H39.7531C40.1852 136.089 40.6173 136.287 40.6173 136.583V137.571C40.6173 137.818 40.2716 138.065 39.7531 138.065H38.0247ZM38.0247 135.101C37.5062 135.101 37.1605 134.904 37.1605 134.608V133.62C37.1605 133.373 37.5062 133.126 38.0247 133.126H39.7531C40.1852 133.126 40.6173 133.323 40.6173 133.62V134.608C40.6173 134.904 40.2716 135.101 39.7531 135.101H38.0247ZM38.0247 132.138C37.5062 132.138 37.1605 131.94 37.1605 131.644V130.656C37.1605 130.36 37.5062 130.162 38.0247 130.162H39.7531C40.1852 130.162 40.6173 130.36 40.6173 130.656V131.644C40.6173 131.891 40.2716 132.138 39.7531 132.138H38.0247ZM38.0247 129.174C37.5062 129.174 37.1605 128.977 37.1605 128.68V127.692C37.1605 127.396 37.5062 127.199 38.0247 127.199H39.7531C40.1852 127.199 40.6173 127.396 40.6173 127.692V128.68C40.6173 128.977 40.2716 129.174 39.7531 129.174H38.0247ZM38.0247 126.211C37.5062 126.211 37.1605 126.013 37.1605 125.717V124.729C37.1605 124.482 37.5062 124.235 38.0247 124.235H39.7531C40.1852 124.235 40.6173 124.433 40.6173 124.729V125.717C40.6173 126.013 40.2716 126.211 39.7531 126.211H38.0247ZM38.0247 123.247C37.5062 123.247 37.1605 123.05 37.1605 122.753V121.765C37.1605 121.469 37.5062 121.271 38.0247 121.271H39.7531C40.1852 121.271 40.6173 121.469 40.6173 121.765V122.753C40.6173 123.05 40.2716 123.247 39.7531 123.247H38.0247ZM38.0247 120.283C37.5062 120.283 37.1605 120.086 37.1605 119.79V118.802C37.1605 118.505 37.5062 118.308 38.0247 118.308H39.7531C40.1852 118.308 40.6173 118.505 40.6173 118.802V119.79C40.6173 120.086 40.2716 120.283 39.7531 120.283H38.0247ZM32.8395 121.271C32.4074 121.271 31.9753 121.074 31.9753 120.777V119.79C31.9753 119.543 32.321 119.296 32.8395 119.296H34.5679C35.0864 119.296 35.4321 119.493 35.4321 119.79V120.777C35.4321 121.074 35.0864 121.271 34.5679 121.271H32.8395ZM27.6543 120.283C27.2222 120.283 26.7901 120.086 26.7901 119.79V118.802C26.7901 118.505 27.1358 118.308 27.6543 118.308H29.3827C29.9012 118.308 30.2469 118.505 30.2469 118.802V119.79C30.2469 120.086 29.9012 120.283 29.3827 120.283H27.6543ZM27.6543 123.247C27.2222 123.247 26.7901 123.05 26.7901 122.753L26.7901 121.765C26.7901 121.469 27.1358 121.271 27.6543 121.271H29.3827C29.9012 121.271 30.2469 121.469 30.2469 121.765L30.2469 122.753C30.2469 123.05 29.9012 123.247 29.3827 123.247H27.6543ZM32.8395 124.235C32.4074 124.235 31.9753 124.037 31.9753 123.741V122.753C31.9753 122.457 32.321 122.259 32.8395 122.259H34.5679C35.0864 122.259 35.4321 122.457 35.4321 122.753V123.741C35.4321 124.037 35.0864 124.235 34.5679 124.235H32.8395ZM32.8395 127.199C32.4074 127.199 31.9753 127.001 31.9753 126.705V125.717C31.9753 125.42 32.321 125.223 32.8395 125.223H34.5679C35.0864 125.223 35.4321 125.42 35.4321 125.717V126.705C35.4321 126.952 35.0864 127.199 34.5679 127.199H32.8395ZM32.8395 130.162C32.4074 130.162 31.9753 129.965 31.9753 129.668V128.68C31.9753 128.384 32.321 128.186 32.8395 128.186H34.5679C35.0864 128.186 35.4321 128.384 35.4321 128.68L35.4321 129.668C35.4321 129.965 35.0864 130.162 34.5679 130.162H32.8395ZM32.8395 133.126C32.4074 133.126 31.9753 132.928 31.9753 132.632V131.644C31.9753 131.348 32.321 131.15 32.8395 131.15H34.5679C35.0864 131.15 35.4321 131.348 35.4321 131.644V132.632C35.4321 132.928 35.0864 133.126 34.5679 133.126H32.8395ZM32.8395 136.089C32.4074 136.089 31.9753 135.892 31.9753 135.595V134.608C31.9753 134.361 32.321 134.114 32.8395 134.114H34.5679C35.0864 134.114 35.4321 134.311 35.4321 134.608V135.595C35.4321 135.842 35.0864 136.089 34.5679 136.089H32.8395ZM27.6543 137.077C27.2222 137.077 26.7901 136.88 26.7901 136.583V135.595C26.7901 135.348 27.1358 135.101 27.6543 135.101H29.3827C29.9012 135.101 30.2469 135.299 30.2469 135.595V136.583C30.2469 136.83 29.9012 137.077 29.3827 137.077H27.6543ZM43.2099 142.017C42.7778 142.017 42.3457 141.819 42.3457 141.572V138.51C42.3457 138.263 42.6914 138.065 43.2099 138.065H44.9383C45.4568 138.065 45.8025 138.263 45.8025 138.51V141.572C45.8025 141.819 45.4568 142.017 44.9383 142.017H43.2099ZM27.6543 142.017C27.2222 142.017 26.7901 141.819 26.7901 141.572L26.7901 138.51C26.7901 138.263 27.1358 138.065 27.6543 138.065H29.3827C29.9012 138.065 30.2469 138.263 30.2469 138.51L30.2469 141.572C30.2469 141.819 29.9012 142.017 29.3827 142.017H27.6543ZM32.8395 142.017C32.4074 142.017 31.9753 141.819 31.9753 141.621L31.9753 137.472C31.9753 137.275 32.321 137.077 32.8395 137.077H34.5679C35.0864 137.077 35.4321 137.275 35.4321 137.472V141.621C35.4321 141.868 35.0864 142.017 34.5679 142.017H32.8395ZM32.8395 118.308C32.4074 118.308 31.9753 118.11 31.9753 117.863L31.9753 114.801C31.9753 114.554 32.321 114.356 32.8395 114.356H34.5679C35.0864 114.356 35.4321 114.554 35.4321 114.801V117.863C35.4321 118.11 35.0864 118.308 34.5679 118.308H32.8395M38.0247 142.017C37.5062 142.017 37.1605 141.819 37.1605 141.572V139.497C37.1605 139.251 37.5062 139.053 38.0247 139.053H39.7531C40.1852 139.053 40.6173 139.251 40.6173 139.497V141.572C40.6173 141.819 40.2716 142.017 39.7531 142.017H38.0247ZM38.0247 117.32C37.5062 117.32 37.1605 117.122 37.1605 116.875V114.801C37.1605 114.554 37.5062 114.356 38.0247 114.356H39.7531C40.1852 114.356 40.6173 114.554 40.6173 114.801V116.875C40.6173 117.122 40.2716 117.32 39.7531 117.32H38.0247M27.6543 117.32C27.2222 117.32 26.7901 117.122 26.7901 116.875V114.801C26.7901 114.554 27.2222 114.356 27.6543 114.356H29.3827C29.8148 114.356 30.2469 114.554 30.2469 114.801V116.875C30.2469 117.122 29.9012 117.32 29.3827 117.32H27.6543ZM27.6543 134.114C27.2222 134.114 26.7901 133.916 26.7901 133.718L26.7901 124.63C26.7901 124.383 27.1358 124.235 27.6543 124.235H29.3827C29.8148 124.235 30.2469 124.433 30.2469 124.63L30.2469 133.669C30.2469 133.916 29.9012 134.064 29.3827 134.064H27.6543V134.114ZM47.5309 116.777V115.887C47.5309 115.196 49.2593 115.196 49.2593 115.887V116.777C49.2593 117.517 47.5309 117.517 47.5309 116.777ZM47.5309 119.74V118.802C47.5309 118.11 49.2593 118.11 49.2593 118.802V119.74C49.2593 120.481 47.5309 120.481 47.5309 119.74ZM47.5309 122.704V121.765C47.5309 121.074 49.2593 121.074 49.2593 121.765V122.704C49.2593 123.445 47.5309 123.445 47.5309 122.704ZM47.5309 125.667V124.778C47.5309 124.087 49.2593 124.087 49.2593 124.778V125.667C49.2593 126.408 47.5309 126.408 47.5309 125.667ZM47.5309 128.631V127.742C47.5309 127.05 49.2593 127.05 49.2593 127.742V128.631C49.2593 129.372 47.5309 129.372 47.5309 128.631ZM47.5309 131.595L47.5309 130.705C47.5309 130.014 49.2593 130.014 49.2593 130.705L49.2593 131.595C49.2593 132.335 47.5309 132.335 47.5309 131.595ZM47.5309 134.558V133.669C47.5309 132.978 49.2593 132.978 49.2593 133.669V134.558C49.2593 135.299 47.5309 135.299 47.5309 134.558ZM47.5309 137.522V136.633C47.5309 135.941 49.2593 135.941 49.2593 136.633V137.522C49.2593 138.263 47.5309 138.263 47.5309 137.522ZM47.5309 140.485V139.596C47.5309 138.905 49.2593 138.905 49.2593 139.596V140.485C49.2593 141.226 47.5309 141.226 47.5309 140.485Z" fill="white"/>
</g>
<rect x="85.5556" y="104.478" width="49.3933" height="6.91358" rx="3.45679" transform="rotate(90 85.5556 104.478)" fill="#D9D9D9"/>
<rect x="85.5556" y="161.774" width="11.3605" height="34.5679" rx="5.68023" transform="rotate(90 85.5556 161.774)" fill="#D9D9D9"/>
<g clip-path="url(#clip6_4_194)">
<path d="M34.6411 69.6641C35.9957 69.0003 38.1622 69.2062 39.8987 69.3418C40.8509 69.4152 41.5833 69.6342 42.5739 69.6132C43.3382 69.5967 44.1019 69.2833 44.6809 69.0882C46.9591 68.3231 48.5304 69.3603 50.3495 69.8641C52.194 70.3766 54.4669 70.002 56.3287 70.4771C57.0643 70.6646 57.8534 70.178 57.1081 69.9881C55.0113 69.4522 52.4965 69.8145 50.5159 69.1939C48.8955 68.6859 47.4339 67.9205 45.2372 68.271C44.1845 68.4389 43.4289 68.8904 42.3551 69.0168C41.7777 69.0837 40.9076 68.8069 40.327 68.7617C39.7993 68.7217 39.2699 68.6807 38.7385 68.6464C36.8032 68.5234 34.9522 68.6308 33.5733 69.3053C32.9883 69.5922 34.0686 69.9454 34.6422 69.6646" fill="#D7D8DA"/>
<path d="M29.2724 71.8117C25.7216 71.813 22.8438 70.4949 22.8438 68.8721C22.8438 67.249 25.7216 65.9332 29.2745 65.9322L38.4836 65.9332C42.0339 65.9332 44.9143 67.2498 44.9122 68.8731C44.9122 70.4964 42.0328 71.8117 38.4836 71.8117H29.2691" fill="#D9D9D9"/>
<path d="M44.6195 69.7528C44.8147 69.468 44.9134 69.1713 44.9122 68.8728C44.9144 67.2493 42.0339 65.9329 38.4837 65.9329L29.2746 65.9319C25.7216 65.9329 22.8439 67.249 22.8439 68.8718C22.8439 69.2643 23.0124 69.6382 23.3181 69.9802C29.7655 68.496 37.8307 68.4935 44.6211 69.7528" fill="#D7D8DA"/>
<path d="M43.8341 68.8728C43.8352 67.5602 41.9529 66.4834 39.5169 66.3029C37.0836 66.4854 35.2062 67.5602 35.2062 68.8718C35.2083 70.1842 37.0874 71.2617 39.5234 71.4405C41.9572 71.2593 43.8341 70.1842 43.8341 68.8728" fill="#E6E7E8"/>
</g>
<g clip-path="url(#clip7_4_194)">
<path d="M48.7654 43.6057V43.1118C61.2963 43.1118 61.2963 40.2469 61.2963 37.1846C61.2963 34.0234 61.2963 30.7634 74.6914 30.7634V31.2574C62.1605 31.2574 62.1605 34.1222 62.1605 37.1846C62.1605 40.3457 62.1605 43.6057 48.7654 43.6057Z" fill="#94989B"/>
<path d="M25.4321 57.9298C23.963 57.9298 22.8395 57.2876 22.8395 56.5467L22.8395 29.6768C22.8395 28.9359 23.963 28.2938 25.4321 28.2938L46.1728 28.2938C47.642 28.2938 48.7654 28.9359 48.7654 29.6768L48.7654 56.5467C48.7654 57.337 47.642 57.9298 46.1728 57.9298L25.4321 57.9298V57.9298Z" fill="#D0D0D0"/>
<path d="M40.9877 31.2574C40.5556 31.2574 40.1235 31.0598 40.1235 30.7634V29.7756C40.1235 29.4792 40.4691 29.2816 40.9877 29.2816H42.7161C43.2346 29.2816 43.5803 29.4792 43.5803 29.7756V30.7634C43.5803 31.0598 43.2346 31.2574 42.7161 31.2574H40.9877ZM40.9877 34.221C40.5556 34.221 40.1235 34.0234 40.1235 33.727V32.7392C40.1235 32.4428 40.4691 32.2452 40.9877 32.2452H42.7161C43.2346 32.2452 43.5803 32.4428 43.5803 32.7392V33.727C43.5803 34.0234 43.2346 34.221 42.7161 34.221H40.9877ZM40.9877 37.1846C40.5556 37.1846 40.1235 36.987 40.1235 36.6906V35.7028C40.1235 35.4064 40.4691 35.2088 40.9877 35.2088H42.7161C43.2346 35.2088 43.5803 35.4064 43.5803 35.7028V36.6906C43.5803 36.987 43.2346 37.1846 42.7161 37.1846H40.9877ZM40.9877 40.1482C40.5556 40.1482 40.1235 39.9506 40.1235 39.6542V38.6664C40.1235 38.37 40.4691 38.1724 40.9877 38.1724H42.7161C43.2346 38.1724 43.5803 38.37 43.5803 38.6664V39.6542C43.5803 39.9506 43.2346 40.1482 42.7161 40.1482H40.9877ZM40.9877 43.1118C40.5556 43.1118 40.1235 42.9142 40.1235 42.6178V41.63C40.1235 41.3336 40.4691 41.136 40.9877 41.136H42.7161C43.2346 41.136 43.5803 41.3336 43.5803 41.63V42.6178C43.5803 42.9142 43.2346 43.1118 42.7161 43.1118H40.9877ZM40.9877 46.0754C40.5556 46.0754 40.1235 45.8778 40.1235 45.5814L40.1235 44.5936C40.1235 44.3466 40.4691 44.0996 40.9877 44.0996H42.7161C43.2346 44.0996 43.5803 44.2972 43.5803 44.5936V45.5814C43.5803 45.8778 43.2346 46.0754 42.7161 46.0754H40.9877ZM40.9877 49.039C40.5556 49.039 40.1235 48.8414 40.1235 48.545V47.5572C40.1235 47.2608 40.4691 47.0632 40.9877 47.0632H42.7161C43.2346 47.0632 43.5803 47.2608 43.5803 47.5572V48.545C43.5803 48.8414 43.2346 49.039 42.7161 49.039H40.9877ZM40.9877 52.0026C40.5556 52.0026 40.1235 51.805 40.1235 51.5086V50.5208C40.1235 50.2738 40.4691 50.0268 40.9877 50.0268H42.7161C43.2346 50.0268 43.5803 50.2244 43.5803 50.5208V51.5086C43.5803 51.7556 43.2346 52.0026 42.7161 52.0026H40.9877ZM35.8025 52.9904C35.284 52.9904 34.9383 52.7929 34.9383 52.4965V51.5086C34.9383 51.2123 35.284 51.0147 35.8025 51.0147H37.5309C37.963 51.0147 38.3951 51.2123 38.3951 51.5086V52.4965C38.3951 52.7435 38.0494 52.9904 37.5309 52.9904H35.8025ZM35.8025 50.0268C35.284 50.0268 34.9383 49.8293 34.9383 49.5329V48.545C34.9383 48.2981 35.284 48.0511 35.8025 48.0511H37.5309C37.963 48.0511 38.3951 48.2487 38.3951 48.545V49.5329C38.3951 49.8293 38.0494 50.0268 37.5309 50.0268H35.8025ZM35.8025 47.0632C35.284 47.0632 34.9383 46.8657 34.9383 46.5693V45.5814C34.9383 45.2851 35.284 45.0875 35.8025 45.0875H37.5309C37.963 45.0875 38.3951 45.2851 38.3951 45.5814V46.5693C38.3951 46.8163 38.0494 47.0632 37.5309 47.0632H35.8025ZM35.8025 44.0996C35.284 44.0996 34.9383 43.9021 34.9383 43.6057V42.6178C34.9383 42.3215 35.284 42.1239 35.8025 42.1239H37.5309C37.963 42.1239 38.3951 42.3215 38.3951 42.6178V43.6057C38.3951 43.9021 38.0494 44.0996 37.5309 44.0996H35.8025ZM35.8025 41.136C35.284 41.136 34.9383 40.9385 34.9383 40.6421V39.6542C34.9383 39.4073 35.284 39.1603 35.8025 39.1603H37.5309C37.963 39.1603 38.3951 39.3579 38.3951 39.6542V40.6421C38.3951 40.9385 38.0494 41.136 37.5309 41.136H35.8025ZM35.8025 38.1724C35.284 38.1724 34.9383 37.9749 34.9383 37.6785V36.6906C34.9383 36.3943 35.284 36.1967 35.8025 36.1967H37.5309C37.963 36.1967 38.3951 36.3943 38.3951 36.6906V37.6785C38.3951 37.9749 38.0494 38.1724 37.5309 38.1724H35.8025ZM35.8025 35.2088C35.284 35.2088 34.9383 35.0113 34.9383 34.7149V33.727C34.9383 33.4307 35.284 33.2331 35.8025 33.2331H37.5309C37.963 33.2331 38.3951 33.4307 38.3951 33.727V34.7149C38.3951 35.0113 38.0494 35.2088 37.5309 35.2088H35.8025ZM30.6173 36.1967C30.1852 36.1967 29.7531 35.9991 29.7531 35.7028V34.7149C29.7531 34.4679 30.0988 34.221 30.6173 34.221H32.3457C32.8642 34.221 33.2099 34.4186 33.2099 34.7149V35.7028C33.2099 35.9991 32.8642 36.1967 32.3457 36.1967H30.6173ZM25.4321 35.2088C25 35.2088 24.5679 35.0113 24.5679 34.7149V33.727C24.5679 33.4307 24.9136 33.2331 25.4321 33.2331H27.1605C27.679 33.2331 28.0247 33.4307 28.0247 33.727V34.7149C28.0247 35.0113 27.679 35.2088 27.1605 35.2088H25.4321ZM25.4321 38.1724C25 38.1724 24.5679 37.9749 24.5679 37.6785L24.5679 36.6906C24.5679 36.3943 24.9136 36.1967 25.4321 36.1967H27.1605C27.679 36.1967 28.0247 36.3943 28.0247 36.6906L28.0247 37.6785C28.0247 37.9749 27.679 38.1724 27.1605 38.1724H25.4321ZM30.6173 39.1603C30.1852 39.1603 29.7531 38.9627 29.7531 38.6664V37.6785C29.7531 37.3822 30.0988 37.1846 30.6173 37.1846H32.3457C32.8642 37.1846 33.2099 37.3822 33.2099 37.6785V38.6664C33.2099 38.9627 32.8642 39.1603 32.3457 39.1603L30.6173 39.1603ZM30.6173 42.1239C30.1852 42.1239 29.7531 41.9263 29.7531 41.63V40.6421C29.7531 40.3458 30.0988 40.1482 30.6173 40.1482L32.3457 40.1482C32.8642 40.1482 33.2099 40.3458 33.2099 40.6421V41.63C33.2099 41.8769 32.8642 42.1239 32.3457 42.1239L30.6173 42.1239ZM30.6173 45.0875C30.1852 45.0875 29.7531 44.8899 29.7531 44.5936V43.6057C29.7531 43.3094 30.0988 43.1118 30.6173 43.1118L32.3457 43.1118C32.8642 43.1118 33.2099 43.3094 33.2099 43.6057L33.2099 44.5936C33.2099 44.8899 32.8642 45.0875 32.3457 45.0875L30.6173 45.0875ZM30.6173 48.0511C30.1852 48.0511 29.7531 47.8535 29.7531 47.5572V46.5693C29.7531 46.2729 30.0988 46.0754 30.6173 46.0754H32.3457C32.8642 46.0754 33.2099 46.2729 33.2099 46.5693V47.5572C33.2099 47.8535 32.8642 48.0511 32.3457 48.0511H30.6173ZM30.6173 51.0147C30.1852 51.0147 29.7531 50.8171 29.7531 50.5208V49.5329C29.7531 49.2859 30.0988 49.039 30.6173 49.039H32.3457C32.8642 49.039 33.2099 49.2365 33.2099 49.5329V50.5208C33.2099 50.7677 32.8642 51.0147 32.3457 51.0147H30.6173ZM25.4321 52.0026C25 52.0026 24.5679 51.805 24.5679 51.5086V50.5208C24.5679 50.2738 24.9136 50.0268 25.4321 50.0268H27.1605C27.679 50.0268 28.0247 50.2244 28.0247 50.5208V51.5086C28.0247 51.7556 27.679 52.0026 27.1605 52.0026H25.4321ZM40.9877 56.9419C40.5556 56.9419 40.1235 56.7443 40.1235 56.4974V53.435C40.1235 53.188 40.4691 52.9904 40.9877 52.9904H42.7161C43.2346 52.9904 43.5803 53.188 43.5803 53.435V56.4974C43.5803 56.7443 43.2346 56.9419 42.7161 56.9419H40.9877ZM25.4321 56.9419C25 56.9419 24.5679 56.7443 24.5679 56.4974L24.5679 53.435C24.5679 53.188 24.9136 52.9904 25.4321 52.9904H27.1605C27.679 52.9904 28.0247 53.188 28.0247 53.435L28.0247 56.4974C28.0247 56.7443 27.679 56.9419 27.1605 56.9419H25.4321ZM30.6173 56.9419C30.1852 56.9419 29.7531 56.7443 29.7531 56.5468L29.7531 52.3977C29.7531 52.2001 30.0988 52.0026 30.6173 52.0026H32.3457C32.8642 52.0026 33.2099 52.2001 33.2099 52.3977V56.5468C33.2099 56.7937 32.8642 56.9419 32.3457 56.9419H30.6173ZM30.6173 33.2331C30.1852 33.2331 29.7531 33.0355 29.7531 32.7886L29.7531 29.7262C29.7531 29.4792 30.0988 29.2816 30.6173 29.2816H32.3457C32.8642 29.2816 33.2099 29.4792 33.2099 29.7262V32.7886C33.2099 33.0355 32.8642 33.2331 32.3457 33.2331H30.6173M35.8025 56.9419C35.284 56.9419 34.9383 56.7443 34.9383 56.4974V54.4228C34.9383 54.1759 35.284 53.9783 35.8025 53.9783H37.5309C37.963 53.9783 38.3951 54.1759 38.3951 54.4228V56.4974C38.3951 56.7443 38.0494 56.9419 37.5309 56.9419H35.8025ZM35.8025 32.2452C35.284 32.2452 34.9383 32.0477 34.9383 31.8007V29.7262C34.9383 29.4792 35.284 29.2816 35.8025 29.2816H37.5309C37.963 29.2816 38.3951 29.4792 38.3951 29.7262V31.8007C38.3951 32.0477 38.0494 32.2452 37.5309 32.2452H35.8025M25.4321 32.2452C25 32.2452 24.5679 32.0477 24.5679 31.8007V29.7262C24.5679 29.4792 25 29.2816 25.4321 29.2816H27.1605C27.5926 29.2816 28.0247 29.4792 28.0247 29.7262V31.8007C28.0247 32.0477 27.679 32.2452 27.1605 32.2452H25.4321ZM25.4321 49.039C25 49.039 24.5679 48.8414 24.5679 48.6438L24.5679 39.5555C24.5679 39.3085 24.9136 39.1603 25.4321 39.1603H27.1605C27.5926 39.1603 28.0247 39.3579 28.0247 39.5555L28.0247 48.5944C28.0247 48.8414 27.679 48.9896 27.1605 48.9896H25.4321V49.039ZM45.3087 31.7019V30.8128C45.3087 30.1213 47.037 30.1213 47.037 30.8128V31.7019C47.037 32.4428 45.3087 32.4428 45.3087 31.7019ZM45.3087 34.6655V33.727C45.3087 33.0355 47.037 33.0355 47.037 33.727V34.6655C47.037 35.4064 45.3087 35.4064 45.3087 34.6655ZM45.3087 37.6291V36.6906C45.3087 35.9991 47.037 35.9991 47.037 36.6906V37.6291C47.037 38.37 45.3087 38.37 45.3087 37.6291ZM45.3087 40.5927V39.7036C45.3087 39.0121 47.037 39.0121 47.037 39.7036V40.5927C47.037 41.3336 45.3087 41.3336 45.3087 40.5927ZM45.3087 43.5563V42.6672C45.3087 41.9757 47.037 41.9757 47.037 42.6672V43.5563C47.037 44.2972 45.3087 44.2972 45.3087 43.5563ZM45.3087 46.5199L45.3087 45.6308C45.3087 44.9393 47.037 44.9393 47.037 45.6308L47.037 46.5199C47.037 47.2608 45.3087 47.2608 45.3087 46.5199ZM45.3087 49.4835V48.5944C45.3087 47.9029 47.037 47.9029 47.037 48.5944V49.4835C47.037 50.2244 45.3087 50.2244 45.3087 49.4835ZM45.3087 52.4471V51.558C45.3087 50.8665 47.037 50.8665 47.037 51.558V52.4471C47.037 53.188 45.3087 53.188 45.3087 52.4471ZM45.3087 55.4107V54.5216C45.3087 53.8301 47.037 53.8301 47.037 54.5216V55.4107C47.037 56.1516 45.3087 56.1516 45.3087 55.4107Z" fill="white"/>
</g>
<rect x="83.3333" y="19.403" width="49.3933" height="6.91358" rx="3.45679" transform="rotate(90 83.3333 19.403)" fill="#D9D9D9"/>
<rect x="83.3333" y="76.6992" width="11.3605" height="34.5679" rx="5.68023" transform="rotate(90 83.3333 76.6992)" fill="#D9D9D9"/>
<defs>
<clipPath id="clip0_4_194">
<rect x="147.037" y="131.644" width="15.8059" height="34.5679" rx="7.90293" transform="rotate(-90 147.037 131.644)" fill="white"/>
</clipPath>
<clipPath id="clip1_4_194">
<rect x="128.025" y="165.231" width="31.6117" height="55.3086" rx="10" transform="rotate(-90 128.025 165.231)" fill="white"/>
</clipPath>
<clipPath id="clip2_4_194">
<rect x="147.037" y="42.0917" width="15.8059" height="34.5679" rx="7.90293" transform="rotate(-90 147.037 42.0917)" fill="white"/>
</clipPath>
<clipPath id="clip3_4_194">
<rect x="128.025" y="75.6792" width="31.6117" height="55.3086" rx="10" transform="rotate(-90 128.025 75.6792)" fill="white"/>
</clipPath>
<clipPath id="clip4_4_194">
<rect x="59.6296" y="145.968" width="15.8059" height="34.5679" rx="7.90293" transform="rotate(90 59.6296 145.968)" fill="white"/>
</clipPath>
<clipPath id="clip5_4_194">
<rect x="78.642" y="112.381" width="31.6117" height="55.3086" rx="10" transform="rotate(90 78.642 112.381)" fill="white"/>
</clipPath>
<clipPath id="clip6_4_194">
<rect x="57.4074" y="60.8933" width="15.8059" height="34.5679" rx="7.90293" transform="rotate(90 57.4074 60.8933)" fill="white"/>
</clipPath>
<clipPath id="clip7_4_194">
<rect x="76.4198" y="27.3059" width="31.6117" height="55.3086" rx="10" transform="rotate(90 76.4198 27.3059)" fill="white"/>
</clipPath>
</defs>
</svg>
