<svg width="109" height="53" viewBox="0 0 109 53" fill="none" xmlns="http://www.w3.org/2000/svg">
<path d="M103.393 6.32226C93.3003 8.85118 90.9454 16.6528 88.6129 23.19L90.7324 24.0246L91.7977 21.1164C92.3359 21.3313 92.8966 21.4957 93.3003 21.4957C105.636 21.4957 109 0 109 0C107.878 2.52891 100.029 2.84502 94.4217 4.10947C88.8148 5.37392 86.572 10.7478 86.572 13.2768C86.572 15.8056 88.5344 18.0184 88.5344 18.0184C92.1789 6.32226 103.393 6.32226 103.393 6.32226Z" fill="#86BD24"/>
<path d="M14.2697 17.5828L5.37671 44.2192H0L11.2032 13.4882H14.6377L14.2697 17.5828ZM21.7113 44.2192L12.7978 17.5828L12.4094 13.4882H15.8644L27.1084 44.2192H21.7113ZM21.282 32.8217V37.0219H5.0905V32.8217H21.282ZM36.6148 44.2192H31.6878V19.187C31.6878 17.4843 31.9945 16.0561 32.6078 14.9024C33.2348 13.7345 34.1275 12.855 35.2859 12.264C36.4444 11.659 37.8142 11.3564 39.3952 11.3564C39.8858 11.3564 40.3696 11.3916 40.8466 11.462C41.3237 11.5183 41.7871 11.6097 42.2369 11.7364L42.1142 15.6622C41.8416 15.5918 41.5418 15.5426 41.2147 15.5144C40.9012 15.4863 40.5605 15.4722 40.1924 15.4722C39.4429 15.4722 38.7955 15.62 38.2503 15.9155C37.7187 16.1969 37.3099 16.6119 37.0237 17.1607C36.7511 17.7095 36.6148 18.3849 36.6148 19.187V44.2192ZM41.1737 21.382V25.0967H28.2942V21.382H41.1737ZM49.6988 25.7721V52.9995H44.7718V21.382H49.3104L49.6988 25.7721ZM64.1119 32.5895V33.0328C64.1119 34.6931 63.9211 36.2339 63.5391 37.6551C63.171 39.0622 62.6191 40.2934 61.8835 41.3487C61.1607 42.3899 60.2681 43.199 59.2051 43.7759C58.1421 44.3529 56.9155 44.6413 55.5253 44.6413C54.1487 44.6413 52.9425 44.381 51.9068 43.8603C50.8846 43.3257 50.0191 42.5729 49.3104 41.602C48.6017 40.6311 48.0292 39.4913 47.5931 38.1827C47.1706 36.8601 46.8708 35.4107 46.6936 33.8348V32.1252C46.8708 30.4507 47.1706 28.9311 47.5931 27.5662C48.0292 26.2013 48.6017 25.0264 49.3104 24.0414C50.0191 23.0565 50.8846 22.2966 51.9068 21.762C52.9289 21.2272 54.1215 20.9599 55.4844 20.9599C56.8746 20.9599 58.1078 21.2413 59.1847 21.8042C60.2617 22.3529 61.1677 23.1409 61.9039 24.1681C62.6395 25.1812 63.1919 26.4053 63.5594 27.8406C63.9275 29.2617 64.1119 30.8448 64.1119 32.5895ZM59.1847 33.0328V32.5895C59.1847 31.5342 59.0894 30.5563 58.8986 29.6557C58.7079 28.7412 58.4078 27.9391 57.999 27.2496C57.5901 26.5601 57.0654 26.0254 56.4248 25.6455C55.7979 25.2515 55.0415 25.0545 54.1556 25.0545C53.2833 25.0545 52.5337 25.2093 51.9068 25.5189C51.2798 25.8144 50.7551 26.2295 50.3325 26.7642C49.9101 27.2989 49.583 27.925 49.3512 28.6426C49.1196 29.3462 48.9561 30.113 48.8606 30.9432V35.0379C49.0241 36.051 49.3036 36.9797 49.6988 37.824C50.0941 38.6682 50.6528 39.3436 51.3752 39.8502C52.1112 40.3427 53.0516 40.5889 54.1965 40.5889C55.0823 40.5889 55.8388 40.3919 56.4657 39.9979C57.0926 39.6039 57.6037 39.0622 57.999 38.3727C58.4078 37.6691 58.7079 36.8601 58.8986 35.9455C59.0894 35.0308 59.1847 34.0599 59.1847 33.0328ZM80.7734 39.6391V28.7482C80.7734 27.9321 80.6303 27.2285 80.3442 26.6375C80.0581 26.0466 79.622 25.5893 79.0358 25.2656C78.463 24.942 77.7408 24.7802 76.8685 24.7802C76.0643 24.7802 75.3694 24.9209 74.7832 25.2023C74.197 25.4837 73.7405 25.8636 73.4137 26.3421C73.0863 26.8204 72.9229 27.3622 72.9229 27.9672H68.0161C68.0161 27.0667 68.2278 26.1943 68.65 25.35C69.0728 24.5058 69.6862 23.753 70.4899 23.0916C71.2941 22.4303 72.2554 21.9097 73.3725 21.5297C74.4901 21.1498 75.7444 20.9599 77.1343 20.9599C78.7974 20.9599 80.2692 21.2484 81.5502 21.8252C82.8447 22.4022 83.8606 23.2746 84.5962 24.4425C85.3458 25.5963 85.7209 27.0456 85.7209 28.7904V38.9425C85.7209 39.9838 85.7889 40.9195 85.925 41.7497C86.075 42.5658 86.2861 43.2764 86.5588 43.8815V44.2192H81.5096C81.2775 43.6704 81.0938 42.9739 80.9571 42.1296C80.8344 41.2713 80.7734 40.4411 80.7734 39.6391ZM81.4886 30.3312L81.5299 33.476H77.9931C77.0796 33.476 76.2759 33.5675 75.5805 33.7504C74.8855 33.9193 74.3064 34.1725 73.8429 34.5102C73.3794 34.8479 73.0323 35.256 72.8002 35.7344C72.5688 36.2128 72.4525 36.7545 72.4525 37.3596C72.4525 37.9646 72.5892 38.5204 72.8619 39.027C73.134 39.5195 73.5295 39.9064 74.0476 40.1879C74.5791 40.4693 75.2193 40.61 75.9689 40.61C76.9778 40.61 77.8565 40.3989 78.6061 39.9768C79.3696 39.5406 79.9691 39.0129 80.4053 38.3938C80.8414 37.7606 81.0734 37.1626 81.1002 36.5998L82.6952 38.8581C82.5313 39.435 82.2521 40.0542 81.8567 40.7155C81.4619 41.3768 80.9437 42.01 80.3029 42.6151C79.676 43.2061 78.9195 43.6915 78.0339 44.0714C77.1616 44.4513 76.1532 44.6413 75.0082 44.6413C73.5638 44.6413 72.2757 44.3458 71.1441 43.7549C70.0131 43.1498 69.1274 42.3407 68.4866 41.3276C67.8463 40.3004 67.5259 39.1396 67.5259 37.845C67.5259 36.6349 67.744 35.5655 68.1801 34.6369C68.6296 33.6941 69.2838 32.9061 70.1427 32.273C71.015 31.6398 72.078 31.1613 73.3317 30.8377C74.5855 30.5 76.0166 30.3312 77.6251 30.3312H81.4886Z" fill="white"/>
</svg>
