<svg width="200" height="200" viewBox="0 0 200 200" fill="none" xmlns="http://www.w3.org/2000/svg">
<path d="M0 128.405H200V190C200 195.523 195.523 200 190 200H10C4.47716 200 0 195.523 0 190V128.405Z" fill="#063455"/>
<path d="M103.597 9.99999C103.597 4.47714 108.074 0 113.597 0H190C195.523 0 200 4.47715 200 10V128.405H103.597V9.99999Z" fill="#063455"/>
<path d="M0 59.0272C0 53.5044 4.47715 49.0272 10 49.0272H103.597V128.405H0V59.0272Z" fill="#063455"/>
<g clip-path="url(#clip0_18_157)">
<path d="M159.245 176.516C158.605 175.567 158.803 174.05 158.934 172.833C159.005 172.167 159.216 171.654 159.196 170.96C159.18 170.425 158.877 169.89 158.689 169.484C157.952 167.888 158.952 166.788 159.437 165.514C159.931 164.222 159.57 162.63 160.028 161.326C160.209 160.811 159.74 160.258 159.557 160.78C159.04 162.249 159.39 164.01 158.791 165.397C158.302 166.532 157.564 167.556 157.902 169.094C158.063 169.832 158.499 170.361 158.621 171.113C158.685 171.517 158.418 172.127 158.375 172.534C158.336 172.903 158.297 173.274 158.263 173.646C158.145 175.002 158.248 176.298 158.899 177.264C159.175 177.673 159.516 176.917 159.245 176.515" fill="#D7D8DA"/>
<path d="M161.315 180.276C161.316 182.763 160.046 184.779 158.481 184.779C156.916 184.779 155.648 182.763 155.647 180.275L155.648 173.825C155.648 171.338 156.917 169.321 158.482 169.322C160.047 169.322 161.315 171.339 161.315 173.825V180.278" fill="#D9D9D9"/>
<path d="M159.33 169.527C159.056 169.391 158.77 169.321 158.482 169.322C156.917 169.321 155.648 171.338 155.648 173.825L155.647 180.275C155.648 182.763 156.916 184.779 158.481 184.779C158.859 184.779 159.22 184.661 159.549 184.447C158.119 179.931 158.116 174.282 159.33 169.526" fill="#D7D8DA"/>
<path d="M158.482 170.077C157.216 170.077 156.178 171.395 156.004 173.101C156.18 174.805 157.216 176.12 158.481 176.12C159.746 176.119 160.785 174.803 160.957 173.096C160.782 171.392 159.746 170.077 158.482 170.077" fill="#E6E7E8"/>
</g>
<path d="M134.123 166.623H133.647C133.647 157.847 130.886 157.847 127.933 157.847C124.886 157.847 121.743 157.847 121.743 148.465H122.219C122.219 157.242 124.981 157.242 127.933 157.242C130.981 157.242 134.123 157.242 134.123 166.623Z" fill="#94989B"/>
<path d="M147.932 182.966C147.932 183.995 147.313 184.782 146.599 184.782H120.696C119.981 184.782 119.362 183.995 119.362 182.966V168.439C119.362 167.41 119.981 166.623 120.696 166.623H146.599C147.361 166.623 147.932 167.41 147.932 168.439V182.966V182.966Z" fill="#D0D0D0"/>
<path d="M122.219 172.071C122.219 172.374 122.029 172.676 121.743 172.676H120.791C120.505 172.676 120.315 172.434 120.315 172.071V170.86C120.315 170.497 120.505 170.255 120.791 170.255H121.743C122.029 170.255 122.219 170.497 122.219 170.86V172.071ZM125.076 172.071C125.076 172.374 124.886 172.676 124.6 172.676H123.648C123.362 172.676 123.172 172.434 123.172 172.071V170.86C123.172 170.497 123.362 170.255 123.648 170.255H124.6C124.886 170.255 125.076 170.497 125.076 170.86V172.071ZM127.933 172.071C127.933 172.374 127.743 172.676 127.457 172.676H126.505C126.219 172.676 126.029 172.434 126.029 172.071V170.86C126.029 170.497 126.219 170.255 126.505 170.255H127.457C127.743 170.255 127.933 170.497 127.933 170.86V172.071ZM130.79 172.071C130.79 172.374 130.6 172.676 130.314 172.676H129.362C129.076 172.676 128.886 172.434 128.886 172.071V170.86C128.886 170.497 129.076 170.255 129.362 170.255H130.314C130.6 170.255 130.79 170.497 130.79 170.86V172.071ZM133.647 172.071C133.647 172.374 133.457 172.676 133.171 172.676H132.219C131.933 172.676 131.743 172.434 131.743 172.071V170.86C131.743 170.497 131.933 170.255 132.219 170.255H133.171C133.457 170.255 133.647 170.497 133.647 170.86V172.071ZM136.504 172.071C136.504 172.374 136.314 172.676 136.028 172.676H135.076C134.838 172.676 134.6 172.434 134.6 172.071V170.86C134.6 170.497 134.79 170.255 135.076 170.255H136.028C136.314 170.255 136.504 170.497 136.504 170.86V172.071ZM139.361 172.071C139.361 172.374 139.171 172.676 138.885 172.676H137.933C137.647 172.676 137.457 172.434 137.457 172.071V170.86C137.457 170.497 137.647 170.255 137.933 170.255H138.885C139.171 170.255 139.361 170.497 139.361 170.86V172.071ZM142.218 172.071C142.218 172.374 142.028 172.676 141.742 172.676H140.79C140.552 172.676 140.314 172.434 140.314 172.071V170.86C140.314 170.497 140.504 170.255 140.79 170.255H141.742C141.98 170.255 142.218 170.497 142.218 170.86V172.071ZM143.171 175.703C143.171 176.066 142.98 176.308 142.694 176.308H141.742C141.456 176.308 141.266 176.066 141.266 175.703V174.492C141.266 174.189 141.456 173.887 141.742 173.887H142.694C142.933 173.887 143.171 174.129 143.171 174.492V175.703ZM140.314 175.703C140.314 176.066 140.123 176.308 139.837 176.308H138.885C138.647 176.308 138.409 176.066 138.409 175.703V174.492C138.409 174.189 138.599 173.887 138.885 173.887H139.837C140.123 173.887 140.314 174.129 140.314 174.492V175.703ZM137.457 175.703C137.457 176.066 137.266 176.308 136.981 176.308H136.028C135.742 176.308 135.552 176.066 135.552 175.703V174.492C135.552 174.189 135.742 173.887 136.028 173.887H136.981C137.219 173.887 137.457 174.129 137.457 174.492V175.703ZM134.6 175.703C134.6 176.066 134.409 176.308 134.124 176.308H133.171C132.885 176.308 132.695 176.066 132.695 175.703V174.492C132.695 174.189 132.885 173.887 133.171 173.887H134.124C134.409 173.887 134.6 174.129 134.6 174.492V175.703ZM131.743 175.703C131.743 176.066 131.552 176.308 131.267 176.308H130.314C130.076 176.308 129.838 176.066 129.838 175.703V174.492C129.838 174.189 130.028 173.887 130.314 173.887H131.267C131.552 173.887 131.743 174.129 131.743 174.492V175.703ZM128.886 175.703C128.886 176.066 128.695 176.308 128.41 176.308H127.457C127.171 176.308 126.981 176.066 126.981 175.703V174.492C126.981 174.189 127.171 173.887 127.457 173.887H128.41C128.695 173.887 128.886 174.129 128.886 174.492V175.703ZM126.029 175.703C126.029 176.066 125.838 176.308 125.553 176.308H124.6C124.314 176.308 124.124 176.066 124.124 175.703V174.492C124.124 174.189 124.314 173.887 124.6 173.887H125.553C125.838 173.887 126.029 174.129 126.029 174.492V175.703ZM126.981 179.334C126.981 179.637 126.791 179.939 126.505 179.939H125.553C125.314 179.939 125.076 179.697 125.076 179.334V178.124C125.076 177.76 125.267 177.518 125.553 177.518H126.505C126.791 177.518 126.981 177.76 126.981 178.124V179.334ZM126.029 182.966C126.029 183.268 125.838 183.571 125.553 183.571H124.6C124.314 183.571 124.124 183.329 124.124 182.966V181.755C124.124 181.392 124.314 181.15 124.6 181.15H125.553C125.838 181.15 126.029 181.392 126.029 181.755V182.966ZM128.886 182.966C128.886 183.268 128.695 183.571 128.41 183.571H127.457C127.171 183.571 126.981 183.329 126.981 182.966V181.755C126.981 181.392 127.171 181.15 127.457 181.15H128.41C128.695 181.15 128.886 181.392 128.886 181.755V182.966ZM129.838 179.334C129.838 179.637 129.648 179.939 129.362 179.939H128.41C128.124 179.939 127.933 179.697 127.933 179.334V178.124C127.933 177.76 128.124 177.518 128.41 177.518H129.362C129.648 177.518 129.838 177.76 129.838 178.124V179.334ZM132.695 179.334C132.695 179.637 132.505 179.939 132.219 179.939H131.267C130.981 179.939 130.79 179.697 130.79 179.334V178.124C130.79 177.76 130.981 177.518 131.267 177.518H132.219C132.457 177.518 132.695 177.76 132.695 178.124V179.334ZM135.552 179.334C135.552 179.637 135.362 179.939 135.076 179.939H134.124C133.838 179.939 133.647 179.697 133.647 179.334V178.124C133.647 177.76 133.838 177.518 134.124 177.518H135.076C135.362 177.518 135.552 177.76 135.552 178.124V179.334ZM138.409 179.334C138.409 179.637 138.219 179.939 137.933 179.939H136.981C136.695 179.939 136.504 179.697 136.504 179.334V178.124C136.504 177.76 136.695 177.518 136.981 177.518H137.933C138.219 177.518 138.409 177.76 138.409 178.124V179.334ZM141.266 179.334C141.266 179.637 141.076 179.939 140.79 179.939H139.837C139.599 179.939 139.361 179.697 139.361 179.334V178.124C139.361 177.76 139.552 177.518 139.837 177.518H140.79C141.028 177.518 141.266 177.76 141.266 178.124V179.334ZM142.218 182.966C142.218 183.268 142.028 183.571 141.742 183.571H140.79C140.552 183.571 140.314 183.329 140.314 182.966V181.755C140.314 181.392 140.504 181.15 140.79 181.15H141.742C141.98 181.15 142.218 181.392 142.218 181.755V182.966ZM146.98 172.071C146.98 172.374 146.79 172.676 146.551 172.676H143.599C143.361 172.676 143.171 172.434 143.171 172.071V170.86C143.171 170.497 143.361 170.255 143.599 170.255H146.551C146.79 170.255 146.98 170.497 146.98 170.86V172.071ZM146.98 182.966C146.98 183.268 146.79 183.571 146.551 183.571H143.599C143.361 183.571 143.171 183.329 143.171 182.966V181.755C143.171 181.392 143.361 181.15 143.599 181.15H146.551C146.79 181.15 146.98 181.392 146.98 181.755V182.966ZM146.98 179.334C146.98 179.637 146.79 179.939 146.599 179.939H142.599C142.409 179.939 142.218 179.697 142.218 179.334V178.124C142.218 177.76 142.409 177.518 142.599 177.518H146.599C146.837 177.518 146.98 177.76 146.98 178.124V179.334ZM124.124 179.334C124.124 179.637 123.934 179.939 123.695 179.939H120.743C120.505 179.939 120.315 179.697 120.315 179.334V178.124C120.315 177.76 120.505 177.518 120.743 177.518H123.695C123.934 177.518 124.124 177.76 124.124 178.124V179.334M146.98 175.703C146.98 176.066 146.79 176.308 146.551 176.308H144.552C144.313 176.308 144.123 176.066 144.123 175.703V174.492C144.123 174.189 144.313 173.887 144.552 173.887H146.551C146.79 173.887 146.98 174.129 146.98 174.492V175.703ZM123.172 175.703C123.172 176.066 122.981 176.308 122.743 176.308H120.743C120.505 176.308 120.315 176.066 120.315 175.703V174.492C120.315 174.189 120.505 173.887 120.743 173.887H122.743C122.981 173.887 123.172 174.129 123.172 174.492V175.703M123.172 182.966C123.172 183.268 122.981 183.571 122.743 183.571H120.743C120.505 183.571 120.315 183.268 120.315 182.966V181.755C120.315 181.453 120.505 181.15 120.743 181.15H122.743C122.981 181.15 123.172 181.392 123.172 181.755V182.966ZM139.361 182.966C139.361 183.268 139.171 183.571 138.98 183.571H130.219C129.981 183.571 129.838 183.329 129.838 182.966V181.755C129.838 181.453 130.028 181.15 130.219 181.15H138.933C139.171 181.15 139.314 181.392 139.314 181.755V182.966H139.361ZM122.648 169.045H121.791C121.124 169.045 121.124 167.834 121.791 167.834H122.648C123.362 167.834 123.362 169.045 122.648 169.045ZM125.505 169.045H124.6C123.934 169.045 123.934 167.834 124.6 167.834H125.505C126.219 167.834 126.219 169.045 125.505 169.045ZM128.362 169.045H127.457C126.791 169.045 126.791 167.834 127.457 167.834H128.362C129.076 167.834 129.076 169.045 128.362 169.045ZM131.219 169.045H130.362C129.695 169.045 129.695 167.834 130.362 167.834H131.219C131.933 167.834 131.933 169.045 131.219 169.045ZM134.076 169.045H133.219C132.552 169.045 132.552 167.834 133.219 167.834H134.076C134.79 167.834 134.79 169.045 134.076 169.045ZM136.933 169.045H136.076C135.409 169.045 135.409 167.834 136.076 167.834H136.933C137.647 167.834 137.647 169.045 136.933 169.045ZM139.79 169.045H138.933C138.266 169.045 138.266 167.834 138.933 167.834H139.79C140.504 167.834 140.504 169.045 139.79 169.045ZM142.647 169.045H141.79C141.123 169.045 141.123 167.834 141.79 167.834H142.647C143.361 167.834 143.361 169.045 142.647 169.045ZM145.504 169.045H144.647C143.98 169.045 143.98 167.834 144.647 167.834H145.504C146.218 167.834 146.218 169.045 145.504 169.045Z" fill="white"/>
<rect x="110.791" y="142.412" width="47.6166" height="4.8422" rx="2.4211" fill="#D9D9D9"/>
<rect x="166.027" y="142.412" width="10.9518" height="24.211" rx="5.47591" fill="#D9D9D9"/>
<g clip-path="url(#clip1_18_157)">
<path d="M168.218 43.3074C167.341 43.9997 165.938 43.7849 164.814 43.6435C164.197 43.567 163.723 43.3386 163.082 43.3605C162.587 43.3777 162.092 43.7045 161.717 43.908C160.242 44.7058 159.225 43.6242 158.047 43.0988C156.853 42.5644 155.381 42.9551 154.176 42.4596C153.699 42.2641 153.188 42.7715 153.671 42.9695C155.029 43.5284 156.657 43.1506 157.939 43.7978C158.989 44.3275 159.935 45.1256 161.357 44.7602C162.039 44.5851 162.528 44.1143 163.223 43.9824C163.597 43.9126 164.161 44.2013 164.536 44.2485C164.878 44.2902 165.221 44.3329 165.565 44.3687C166.818 44.497 168.017 44.385 168.909 43.6816C169.288 43.3824 168.589 43.0141 168.217 43.3069" fill="#D7D8DA"/>
<path d="M171.694 41.0679C173.993 41.0666 175.857 42.4411 175.857 44.1333C175.857 45.8259 173.993 47.198 171.693 47.1991L165.73 47.198C163.431 47.198 161.566 45.8251 161.568 44.1323C161.568 42.4395 163.432 41.0679 165.73 41.0679H171.696" fill="#D9D9D9"/>
<path d="M161.757 43.215C161.631 43.5119 161.567 43.8214 161.568 44.1326C161.566 45.8256 163.431 47.1983 165.73 47.1983L171.693 47.1993C173.993 47.1983 175.857 45.8259 175.857 44.1336C175.857 43.7244 175.748 43.3345 175.55 42.9778C171.375 44.5256 166.153 44.5281 161.756 43.215" fill="#D7D8DA"/>
<path d="M162.266 44.1326C162.265 45.5014 163.484 46.6242 165.061 46.8125C166.637 46.6222 167.852 45.5014 167.852 44.1336C167.851 42.765 166.634 41.6414 165.057 41.455C163.481 41.644 162.266 42.765 162.266 44.1326" fill="#E6E7E8"/>
</g>
<g clip-path="url(#clip2_18_157)">
<path d="M159.073 70.4812V70.9963C150.959 70.9963 150.959 73.9837 150.959 77.1772C150.959 80.4736 150.959 83.8731 142.286 83.8731V83.3581C150.4 83.3581 150.4 80.3706 150.4 77.1772C150.4 73.8807 150.4 70.4812 159.073 70.4812Z" fill="#94989B"/>
<path d="M174.181 55.544C175.132 55.544 175.859 56.2136 175.859 56.9862V85.0063C175.859 85.7789 175.132 86.4485 174.181 86.4485H160.751C159.8 86.4485 159.073 85.7789 159.073 85.0063V56.9862C159.073 56.1621 159.8 55.544 160.751 55.544H174.181V55.544Z" fill="#D0D0D0"/>
<path d="M164.109 83.3581C164.388 83.3581 164.668 83.5641 164.668 83.8731V84.9033C164.668 85.2123 164.444 85.4184 164.109 85.4184H162.99C162.654 85.4184 162.43 85.2123 162.43 84.9033V83.8731C162.43 83.5641 162.654 83.3581 162.99 83.3581H164.109ZM164.109 80.2676C164.388 80.2676 164.668 80.4736 164.668 80.7827V81.8128C164.668 82.1219 164.444 82.3279 164.109 82.3279H162.99C162.654 82.3279 162.43 82.1219 162.43 81.8128V80.7827C162.43 80.4736 162.654 80.2676 162.99 80.2676H164.109ZM164.109 77.1772C164.388 77.1772 164.668 77.3832 164.668 77.6922V78.7224C164.668 79.0314 164.444 79.2375 164.109 79.2375H162.99C162.654 79.2375 162.43 79.0314 162.43 78.7224V77.6922C162.43 77.3832 162.654 77.1772 162.99 77.1772H164.109ZM164.109 74.0867C164.388 74.0867 164.668 74.2927 164.668 74.6018V75.6319C164.668 75.941 164.444 76.147 164.109 76.147H162.99C162.654 76.147 162.43 75.941 162.43 75.6319V74.6018C162.43 74.2927 162.654 74.0867 162.99 74.0867H164.109ZM164.109 70.9963C164.388 70.9963 164.668 71.2023 164.668 71.5113V72.5415C164.668 72.8505 164.444 73.0566 164.109 73.0566H162.99C162.654 73.0566 162.43 72.8505 162.43 72.5415V71.5113C162.43 71.2023 162.654 70.9963 162.99 70.9963H164.109ZM164.109 67.9058C164.388 67.9058 164.668 68.1119 164.668 68.4209V69.451C164.668 69.7086 164.444 69.9661 164.109 69.9661H162.99C162.654 69.9661 162.43 69.7601 162.43 69.451V68.4209C162.43 68.1119 162.654 67.9058 162.99 67.9058H164.109ZM164.109 64.8154C164.388 64.8154 164.668 65.0214 164.668 65.3305V66.3606C164.668 66.6696 164.444 66.8757 164.109 66.8757H162.99C162.654 66.8757 162.43 66.6696 162.43 66.3606V65.3305C162.43 65.0214 162.654 64.8154 162.99 64.8154H164.109ZM164.109 61.7249C164.388 61.7249 164.668 61.931 164.668 62.24V63.2702C164.668 63.5277 164.444 63.7852 164.109 63.7852H162.99C162.654 63.7852 162.43 63.5792 162.43 63.2702V62.24C162.43 61.9825 162.654 61.7249 162.99 61.7249H164.109ZM167.466 60.6948C167.802 60.6948 168.026 60.9008 168.026 61.2099V62.24C168.026 62.5491 167.802 62.7551 167.466 62.7551H166.347C166.067 62.7551 165.787 62.5491 165.787 62.24V61.2099C165.787 60.9523 166.011 60.6948 166.347 60.6948H167.466ZM167.466 63.7852C167.802 63.7852 168.026 63.9913 168.026 64.3003V65.3305C168.026 65.588 167.802 65.8455 167.466 65.8455H166.347C166.067 65.8455 165.787 65.6395 165.787 65.3305V64.3003C165.787 63.9913 166.011 63.7852 166.347 63.7852H167.466ZM167.466 66.8757C167.802 66.8757 168.026 67.0817 168.026 67.3908V68.4209C168.026 68.7299 167.802 68.936 167.466 68.936H166.347C166.067 68.936 165.787 68.7299 165.787 68.4209V67.3908C165.787 67.1332 166.011 66.8757 166.347 66.8757H167.466ZM167.466 69.9661C167.802 69.9661 168.026 70.1722 168.026 70.4812V71.5113C168.026 71.8204 167.802 72.0264 167.466 72.0264H166.347C166.067 72.0264 165.787 71.8204 165.787 71.5113V70.4812C165.787 70.1722 166.011 69.9661 166.347 69.9661H167.466ZM167.466 73.0566C167.802 73.0566 168.026 73.2626 168.026 73.5716V74.6018C168.026 74.8593 167.802 75.1169 167.466 75.1169H166.347C166.067 75.1169 165.787 74.9108 165.787 74.6018V73.5716C165.787 73.2626 166.011 73.0566 166.347 73.0566H167.466ZM167.466 76.147C167.802 76.147 168.026 76.353 168.026 76.6621V77.6922C168.026 78.0013 167.802 78.2073 167.466 78.2073H166.347C166.067 78.2073 165.787 78.0013 165.787 77.6922V76.6621C165.787 76.353 166.011 76.147 166.347 76.147H167.466ZM167.466 79.2375C167.802 79.2375 168.026 79.4435 168.026 79.7525V80.7827C168.026 81.0917 167.802 81.2978 167.466 81.2978H166.347C166.067 81.2978 165.787 81.0917 165.787 80.7827V79.7525C165.787 79.4435 166.011 79.2375 166.347 79.2375H167.466ZM170.823 78.2073C171.103 78.2073 171.383 78.4133 171.383 78.7224V79.7525C171.383 80.0101 171.159 80.2676 170.823 80.2676H169.704C169.368 80.2676 169.145 80.0616 169.145 79.7525V78.7224C169.145 78.4133 169.368 78.2073 169.704 78.2073H170.823ZM174.181 79.2375C174.46 79.2375 174.74 79.4435 174.74 79.7525V80.7827C174.74 81.0917 174.516 81.2978 174.181 81.2978H173.061C172.726 81.2978 172.502 81.0917 172.502 80.7827V79.7525C172.502 79.4435 172.726 79.2375 173.061 79.2375H174.181ZM174.181 76.147C174.46 76.147 174.74 76.353 174.74 76.6621V77.6922C174.74 78.0013 174.516 78.2073 174.181 78.2073H173.061C172.726 78.2073 172.502 78.0013 172.502 77.6922V76.6621C172.502 76.353 172.726 76.147 173.061 76.147H174.181ZM170.823 75.1169C171.103 75.1169 171.383 75.3229 171.383 75.6319V76.6621C171.383 76.9711 171.159 77.1772 170.823 77.1772H169.704C169.368 77.1772 169.145 76.9711 169.145 76.6621V75.6319C169.145 75.3229 169.368 75.1169 169.704 75.1169H170.823ZM170.823 72.0264C171.103 72.0264 171.383 72.2324 171.383 72.5415V73.5716C171.383 73.8807 171.159 74.0867 170.823 74.0867H169.704C169.368 74.0867 169.145 73.8807 169.145 73.5716V72.5415C169.145 72.284 169.368 72.0264 169.704 72.0264H170.823ZM170.823 68.936C171.103 68.936 171.383 69.142 171.383 69.451V70.4812C171.383 70.7902 171.159 70.9963 170.823 70.9963H169.704C169.368 70.9963 169.145 70.7902 169.145 70.4812V69.451C169.145 69.142 169.368 68.936 169.704 68.936H170.823ZM170.823 65.8455C171.103 65.8455 171.383 66.0516 171.383 66.3606V67.3908C171.383 67.6998 171.159 67.9058 170.823 67.9058H169.704C169.368 67.9058 169.145 67.6998 169.145 67.3908V66.3606C169.145 66.0516 169.368 65.8455 169.704 65.8455H170.823ZM170.823 62.7551C171.103 62.7551 171.383 62.9611 171.383 63.2702V64.3003C171.383 64.5578 171.159 64.8154 170.823 64.8154H169.704C169.368 64.8154 169.145 64.6093 169.145 64.3003V63.2702C169.145 63.0126 169.368 62.7551 169.704 62.7551H170.823ZM174.181 61.7249C174.46 61.7249 174.74 61.931 174.74 62.24V63.2702C174.74 63.5277 174.516 63.7852 174.181 63.7852H173.061C172.726 63.7852 172.502 63.5792 172.502 63.2702V62.24C172.502 61.9825 172.726 61.7249 173.061 61.7249H174.181ZM164.109 56.5742C164.388 56.5742 164.668 56.7802 164.668 57.0378V60.2312C164.668 60.4888 164.444 60.6948 164.109 60.6948H162.99C162.654 60.6948 162.43 60.4888 162.43 60.2312V57.0378C162.43 56.7802 162.654 56.5742 162.99 56.5742H164.109ZM174.181 56.5742C174.46 56.5742 174.74 56.7802 174.74 57.0378V60.2312C174.74 60.4888 174.516 60.6948 174.181 60.6948H173.061C172.726 60.6948 172.502 60.4888 172.502 60.2312V57.0378C172.502 56.7802 172.726 56.5742 173.061 56.5742H174.181ZM170.823 56.5742C171.103 56.5742 171.383 56.7802 171.383 56.9862V61.3129C171.383 61.5189 171.159 61.7249 170.823 61.7249H169.704C169.368 61.7249 169.145 61.5189 169.145 61.3129V56.9862C169.145 56.7287 169.368 56.5742 169.704 56.5742H170.823ZM170.823 81.2978C171.103 81.2978 171.383 81.5038 171.383 81.7613V84.9548C171.383 85.2123 171.159 85.4184 170.823 85.4184H169.704C169.368 85.4184 169.145 85.2123 169.145 84.9548V81.7613C169.145 81.5038 169.368 81.2978 169.704 81.2978H170.823M167.466 56.5742C167.802 56.5742 168.026 56.7802 168.026 57.0378V59.2011C168.026 59.4586 167.802 59.6646 167.466 59.6646H166.347C166.067 59.6646 165.787 59.4586 165.787 59.2011V57.0378C165.787 56.7802 166.011 56.5742 166.347 56.5742H167.466ZM167.466 82.3279C167.802 82.3279 168.026 82.5339 168.026 82.7915V84.9548C168.026 85.2123 167.802 85.4184 167.466 85.4184H166.347C166.067 85.4184 165.787 85.2123 165.787 84.9548V82.7915C165.787 82.5339 166.011 82.3279 166.347 82.3279H167.466M174.181 82.3279C174.46 82.3279 174.74 82.5339 174.74 82.7915V84.9548C174.74 85.2123 174.46 85.4184 174.181 85.4184H173.061C172.782 85.4184 172.502 85.2123 172.502 84.9548V82.7915C172.502 82.5339 172.726 82.3279 173.061 82.3279H174.181ZM174.181 64.8154C174.46 64.8154 174.74 65.0214 174.74 65.2274V74.7048C174.74 74.9623 174.516 75.1169 174.181 75.1169H173.061C172.782 75.1169 172.502 74.9108 172.502 74.7048V65.2789C172.502 65.0214 172.726 64.8669 173.061 64.8669H174.181V64.8154ZM161.311 82.8945V83.8216C161.311 84.5427 160.192 84.5427 160.192 83.8216V82.8945C160.192 82.1219 161.311 82.1219 161.311 82.8945ZM161.311 79.804V80.7827C161.311 81.5038 160.192 81.5038 160.192 80.7827V79.804C160.192 79.0314 161.311 79.0314 161.311 79.804ZM161.311 76.7136V77.6922C161.311 78.4133 160.192 78.4133 160.192 77.6922V76.7136C160.192 75.941 161.311 75.941 161.311 76.7136ZM161.311 73.6232V74.5503C161.311 75.2714 160.192 75.2714 160.192 74.5503V73.6232C160.192 72.8505 161.311 72.8505 161.311 73.6232ZM161.311 70.5327V71.4598C161.311 72.1809 160.192 72.1809 160.192 71.4598V70.5327C160.192 69.7601 161.311 69.7601 161.311 70.5327ZM161.311 67.4423V68.3694C161.311 69.0905 160.192 69.0905 160.192 68.3694V67.4423C160.192 66.6696 161.311 66.6696 161.311 67.4423ZM161.311 64.3518V65.2789C161.311 66.0001 160.192 66.0001 160.192 65.2789V64.3518C160.192 63.5792 161.311 63.5792 161.311 64.3518ZM161.311 61.2614V62.1885C161.311 62.9096 160.192 62.9096 160.192 62.1885V61.2614C160.192 60.4888 161.311 60.4888 161.311 61.2614ZM161.311 58.1709V59.0981C161.311 59.8192 160.192 59.8192 160.192 59.0981V58.1709C160.192 57.3983 161.311 57.3983 161.311 58.1709Z" fill="white"/>
</g>
<rect x="136.691" y="95.7198" width="51.5074" height="4.47642" rx="2.23821" transform="rotate(-90 136.691 95.7198)" fill="#D9D9D9"/>
<rect x="136.691" y="35.9712" width="11.8467" height="22.3821" rx="5.92335" transform="rotate(-90 136.691 35.9712)" fill="#D9D9D9"/>
<g clip-path="url(#clip3_18_157)">
<path d="M67.1582 176.516C66.5182 175.567 66.7168 174.05 66.8475 172.833C66.9182 172.167 67.1294 171.654 67.1092 170.96C67.0932 170.425 66.7911 169.89 66.603 169.484C65.8654 167.888 66.8654 166.788 67.3511 165.514C67.8451 164.222 67.4839 162.63 67.942 161.326C68.1227 160.811 67.6537 160.258 67.4706 160.78C66.9539 162.249 67.3032 164.01 66.7049 165.397C66.2152 166.532 65.4774 167.556 65.8152 169.094C65.9771 169.832 66.4123 170.361 66.5342 171.113C66.5987 171.517 66.3318 172.127 66.2883 172.534C66.2497 172.903 66.2102 173.274 66.1771 173.646C66.0585 175.002 66.1621 176.298 66.8123 177.264C67.0889 177.673 67.4294 176.917 67.1587 176.515" fill="#D7D8DA"/>
<path d="M69.2286 180.276C69.2298 182.763 67.9591 184.779 66.3947 184.779C64.83 184.779 63.5615 182.763 63.5605 180.275L63.5615 173.825C63.5615 171.338 64.8307 169.321 66.3956 169.322C67.9606 169.322 69.2286 171.339 69.2286 173.825V180.278" fill="#D9D9D9"/>
<path d="M67.2437 169.527C66.9692 169.391 66.6831 169.321 66.3954 169.322C64.8302 169.321 63.5613 171.338 63.5613 173.825L63.5603 180.275C63.5613 182.763 64.83 184.779 66.3944 184.779C66.7728 184.779 67.1332 184.661 67.463 184.447C66.0321 179.931 66.0297 174.282 67.2437 169.526" fill="#D7D8DA"/>
<path d="M66.3954 170.077C65.13 170.077 64.0919 171.395 63.9179 173.101C64.0939 174.805 65.13 176.12 66.3944 176.12C67.6596 176.119 68.6984 174.803 68.8707 173.096C68.696 171.392 67.6596 170.077 66.3954 170.077" fill="#E6E7E8"/>
</g>
<path d="M42.0372 166.623H41.561C41.561 157.847 38.7992 157.847 35.847 157.847C32.7996 157.847 29.6569 157.847 29.6569 148.465H30.133C30.133 157.242 32.8948 157.242 35.847 157.242C38.8945 157.242 42.0372 157.242 42.0372 166.623Z" fill="#94989B"/>
<path d="M55.846 182.966C55.846 183.995 55.2269 184.782 54.5127 184.782H28.6093C27.895 184.782 27.276 183.995 27.276 182.966V168.439C27.276 167.41 27.895 166.623 28.6093 166.623H54.5127C55.2746 166.623 55.846 167.41 55.846 168.439V182.966V182.966Z" fill="#D0D0D0"/>
<path d="M30.133 172.071C30.133 172.374 29.9425 172.676 29.6568 172.676H28.7045C28.4188 172.676 28.2283 172.434 28.2283 172.071V170.86C28.2283 170.497 28.4188 170.255 28.7045 170.255H29.6568C29.9425 170.255 30.133 170.497 30.133 170.86V172.071ZM32.99 172.071C32.99 172.374 32.7995 172.676 32.5138 172.676H31.5615C31.2758 172.676 31.0853 172.434 31.0853 172.071V170.86C31.0853 170.497 31.2758 170.255 31.5615 170.255H32.5138C32.7995 170.255 32.99 170.497 32.99 170.86V172.071ZM35.847 172.071C35.847 172.374 35.6565 172.676 35.3708 172.676H34.4185C34.1328 172.676 33.9423 172.434 33.9423 172.071V170.86C33.9423 170.497 34.1328 170.255 34.4185 170.255H35.3708C35.6565 170.255 35.847 170.497 35.847 170.86V172.071ZM38.704 172.071C38.704 172.374 38.5135 172.676 38.2278 172.676H37.2755C36.9898 172.676 36.7993 172.434 36.7993 172.071V170.86C36.7993 170.497 36.9898 170.255 37.2755 170.255H38.2278C38.5135 170.255 38.704 170.497 38.704 170.86V172.071ZM41.561 172.071C41.561 172.374 41.3705 172.676 41.0848 172.676H40.1325C39.8468 172.676 39.6563 172.434 39.6563 172.071V170.86C39.6563 170.497 39.8468 170.255 40.1325 170.255H41.0848C41.3705 170.255 41.561 170.497 41.561 170.86V172.071ZM44.418 172.071C44.418 172.374 44.2275 172.676 43.9418 172.676H42.9895C42.7514 172.676 42.5133 172.434 42.5133 172.071V170.86C42.5133 170.497 42.7038 170.255 42.9895 170.255H43.9418C44.2275 170.255 44.418 170.497 44.418 170.86V172.071ZM47.275 172.071C47.275 172.374 47.0845 172.676 46.7988 172.676H45.8465C45.5608 172.676 45.3703 172.434 45.3703 172.071V170.86C45.3703 170.497 45.5608 170.255 45.8465 170.255H46.7988C47.0845 170.255 47.275 170.497 47.275 170.86V172.071ZM50.132 172.071C50.132 172.374 49.9415 172.676 49.6558 172.676H48.7035C48.4654 172.676 48.2273 172.434 48.2273 172.071V170.86C48.2273 170.497 48.4178 170.255 48.7035 170.255H49.6558C49.8939 170.255 50.132 170.497 50.132 170.86V172.071ZM51.0843 175.703C51.0843 176.066 50.8938 176.308 50.6081 176.308H49.6558C49.3701 176.308 49.1796 176.066 49.1796 175.703V174.492C49.1796 174.189 49.3701 173.887 49.6558 173.887H50.6081C50.8462 173.887 51.0843 174.129 51.0843 174.492V175.703ZM48.2273 175.703C48.2273 176.066 48.0368 176.308 47.7511 176.308H46.7988C46.5607 176.308 46.3226 176.066 46.3226 175.703V174.492C46.3226 174.189 46.5131 173.887 46.7988 173.887H47.7511C48.0368 173.887 48.2273 174.129 48.2273 174.492V175.703ZM45.3703 175.703C45.3703 176.066 45.1798 176.308 44.8941 176.308H43.9418C43.6561 176.308 43.4656 176.066 43.4656 175.703V174.492C43.4656 174.189 43.6561 173.887 43.9418 173.887H44.8941C45.1322 173.887 45.3703 174.129 45.3703 174.492V175.703ZM42.5133 175.703C42.5133 176.066 42.3228 176.308 42.0371 176.308H41.0848C40.7991 176.308 40.6086 176.066 40.6086 175.703V174.492C40.6086 174.189 40.7991 173.887 41.0848 173.887H42.0371C42.3228 173.887 42.5133 174.129 42.5133 174.492V175.703ZM39.6563 175.703C39.6563 176.066 39.4658 176.308 39.1801 176.308H38.2278C37.9897 176.308 37.7516 176.066 37.7516 175.703V174.492C37.7516 174.189 37.9421 173.887 38.2278 173.887H39.1801C39.4658 173.887 39.6563 174.129 39.6563 174.492V175.703ZM36.7993 175.703C36.7993 176.066 36.6089 176.308 36.3232 176.308H35.3708C35.0851 176.308 34.8947 176.066 34.8947 175.703V174.492C34.8947 174.189 35.0851 173.887 35.3708 173.887H36.3232C36.6089 173.887 36.7993 174.129 36.7993 174.492V175.703ZM33.9423 175.703C33.9423 176.066 33.7519 176.308 33.4662 176.308H32.5138C32.2281 176.308 32.0377 176.066 32.0377 175.703V174.492C32.0377 174.189 32.2281 173.887 32.5138 173.887H33.4662C33.7519 173.887 33.9423 174.129 33.9423 174.492V175.703ZM34.8947 179.334C34.8947 179.637 34.7042 179.939 34.4185 179.939H33.4662C33.2281 179.939 32.99 179.697 32.99 179.334V178.124C32.99 177.76 33.1805 177.518 33.4662 177.518H34.4185C34.7042 177.518 34.8947 177.76 34.8947 178.124V179.334ZM33.9423 182.966C33.9423 183.268 33.7519 183.571 33.4662 183.571H32.5138C32.2281 183.571 32.0377 183.329 32.0377 182.966V181.755C32.0377 181.392 32.2281 181.15 32.5138 181.15H33.4662C33.7519 181.15 33.9423 181.392 33.9423 181.755V182.966ZM36.7993 182.966C36.7993 183.268 36.6089 183.571 36.3232 183.571H35.3708C35.0851 183.571 34.8947 183.329 34.8947 182.966V181.755C34.8947 181.392 35.0851 181.15 35.3708 181.15H36.3232C36.6089 181.15 36.7993 181.392 36.7993 181.755V182.966ZM37.7516 179.334C37.7516 179.637 37.5612 179.939 37.2755 179.939H36.3232C36.0375 179.939 35.847 179.697 35.847 179.334V178.124C35.847 177.76 36.0375 177.518 36.3232 177.518H37.2755C37.5612 177.518 37.7516 177.76 37.7516 178.124V179.334ZM40.6086 179.334C40.6086 179.637 40.4182 179.939 40.1325 179.939H39.1801C38.8944 179.939 38.704 179.697 38.704 179.334V178.124C38.704 177.76 38.8944 177.518 39.1801 177.518H40.1325C40.3706 177.518 40.6086 177.76 40.6086 178.124V179.334ZM43.4656 179.334C43.4656 179.637 43.2752 179.939 42.9895 179.939H42.0371C41.7514 179.939 41.561 179.697 41.561 179.334V178.124C41.561 177.76 41.7514 177.518 42.0371 177.518H42.9895C43.2752 177.518 43.4656 177.76 43.4656 178.124V179.334ZM46.3226 179.334C46.3226 179.637 46.1322 179.939 45.8465 179.939H44.8941C44.6084 179.939 44.418 179.697 44.418 179.334V178.124C44.418 177.76 44.6084 177.518 44.8941 177.518H45.8465C46.1322 177.518 46.3226 177.76 46.3226 178.124V179.334ZM49.1796 179.334C49.1796 179.637 48.9892 179.939 48.7035 179.939H47.7511C47.513 179.939 47.275 179.697 47.275 179.334V178.124C47.275 177.76 47.4654 177.518 47.7511 177.518H48.7035C48.9415 177.518 49.1796 177.76 49.1796 178.124V179.334ZM50.132 182.966C50.132 183.268 49.9415 183.571 49.6558 183.571H48.7035C48.4654 183.571 48.2273 183.329 48.2273 182.966V181.755C48.2273 181.392 48.4178 181.15 48.7035 181.15H49.6558C49.8939 181.15 50.132 181.392 50.132 181.755V182.966ZM54.8936 172.071C54.8936 172.374 54.7032 172.676 54.4651 172.676H51.5128C51.2748 172.676 51.0843 172.434 51.0843 172.071V170.86C51.0843 170.497 51.2748 170.255 51.5128 170.255H54.4651C54.7032 170.255 54.8936 170.497 54.8936 170.86V172.071ZM54.8936 182.966C54.8936 183.268 54.7032 183.571 54.4651 183.571H51.5128C51.2748 183.571 51.0843 183.329 51.0843 182.966V181.755C51.0843 181.392 51.2748 181.15 51.5128 181.15H54.4651C54.7032 181.15 54.8936 181.392 54.8936 181.755V182.966ZM54.8936 179.334C54.8936 179.637 54.7032 179.939 54.5127 179.939H50.5129C50.3224 179.939 50.132 179.697 50.132 179.334V178.124C50.132 177.76 50.3224 177.518 50.5129 177.518H54.5127C54.7508 177.518 54.8936 177.76 54.8936 178.124V179.334ZM32.0377 179.334C32.0377 179.637 31.8472 179.939 31.6091 179.939H28.6569C28.4188 179.939 28.2283 179.697 28.2283 179.334V178.124C28.2283 177.76 28.4188 177.518 28.6569 177.518H31.6091C31.8472 177.518 32.0377 177.76 32.0377 178.124V179.334M54.8936 175.703C54.8936 176.066 54.7032 176.308 54.4651 176.308H52.4652C52.2271 176.308 52.0366 176.066 52.0366 175.703V174.492C52.0366 174.189 52.2271 173.887 52.4652 173.887H54.4651C54.7032 173.887 54.8936 174.129 54.8936 174.492V175.703ZM31.0853 175.703C31.0853 176.066 30.8949 176.308 30.6568 176.308H28.6569C28.4188 176.308 28.2283 176.066 28.2283 175.703V174.492C28.2283 174.189 28.4188 173.887 28.6569 173.887H30.6568C30.8949 173.887 31.0853 174.129 31.0853 174.492V175.703M31.0853 182.966C31.0853 183.268 30.8949 183.571 30.6568 183.571H28.6569C28.4188 183.571 28.2283 183.268 28.2283 182.966V181.755C28.2283 181.453 28.4188 181.15 28.6569 181.15H30.6568C30.8949 181.15 31.0853 181.392 31.0853 181.755V182.966ZM47.275 182.966C47.275 183.268 47.0845 183.571 46.894 183.571H38.1326C37.8945 183.571 37.7516 183.329 37.7516 182.966V181.755C37.7516 181.453 37.9421 181.15 38.1326 181.15H46.8464C47.0845 181.15 47.2273 181.392 47.2273 181.755V182.966H47.275ZM30.5615 169.045H29.7044C29.0378 169.045 29.0378 167.834 29.7044 167.834H30.5615C31.2758 167.834 31.2758 169.045 30.5615 169.045ZM33.4185 169.045H32.5138C31.8472 169.045 31.8472 167.834 32.5138 167.834H33.4185C34.1328 167.834 34.1328 169.045 33.4185 169.045ZM36.2755 169.045H35.3708C34.7042 169.045 34.7042 167.834 35.3708 167.834H36.2755C36.9898 167.834 36.9898 169.045 36.2755 169.045ZM39.1325 169.045H38.2754C37.6088 169.045 37.6088 167.834 38.2754 167.834H39.1325C39.8468 167.834 39.8468 169.045 39.1325 169.045ZM41.9895 169.045H41.1324C40.4658 169.045 40.4658 167.834 41.1324 167.834H41.9895C42.7038 167.834 42.7038 169.045 41.9895 169.045ZM44.8465 169.045H43.9894C43.3228 169.045 43.3228 167.834 43.9894 167.834H44.8465C45.5608 167.834 45.5608 169.045 44.8465 169.045ZM47.7035 169.045H46.8464C46.1798 169.045 46.1798 167.834 46.8464 167.834H47.7035C48.4178 167.834 48.4178 169.045 47.7035 169.045ZM50.5605 169.045H49.7034C49.0368 169.045 49.0368 167.834 49.7034 167.834H50.5605C51.2748 167.834 51.2748 169.045 50.5605 169.045ZM53.4175 169.045H52.5604C51.8938 169.045 51.8938 167.834 52.5604 167.834H53.4175C54.1318 167.834 54.1318 169.045 53.4175 169.045Z" fill="white"/>
<rect x="18.705" y="142.412" width="47.6166" height="4.8422" rx="2.4211" fill="#D9D9D9"/>
<rect x="73.9403" y="142.412" width="10.9518" height="24.211" rx="5.47591" fill="#D9D9D9"/>
<g clip-path="url(#clip4_18_157)">
<path d="M39.3166 74.0678C39.9566 75.0166 39.758 76.5339 39.6273 77.7502C39.5566 78.4171 39.3454 78.9301 39.3657 79.6239C39.3816 80.1592 39.6838 80.6941 39.8718 81.0996C40.6094 82.6953 39.6095 83.7957 39.1238 85.0698C38.6298 86.3617 38.9909 87.9536 38.5329 89.2576C38.3522 89.7728 38.8212 90.3255 39.0043 89.8035C39.5209 88.3349 39.1716 86.5736 39.7699 85.1863C40.2597 84.0515 40.9975 83.0278 40.6597 81.4893C40.4978 80.752 40.0626 80.2227 39.9407 79.4707C39.8761 79.0663 40.143 78.4568 40.1866 78.0502C40.2252 77.6806 40.2647 77.3098 40.2978 76.9376C40.4163 75.5822 40.3128 74.2857 39.6626 73.3199C39.3859 72.9102 39.0455 73.6668 39.3162 74.0686" fill="#D7D8DA"/>
<path d="M37.2463 70.3075C37.2451 67.8206 38.5157 65.805 40.0802 65.805C41.6448 65.805 42.9134 67.8206 42.9143 70.309L42.9134 76.759C42.9134 79.2455 41.6441 81.263 40.0792 81.2615C38.5143 81.2615 37.2463 79.2448 37.2463 76.759V70.3052" fill="#D9D9D9"/>
<path d="M39.2312 81.0564C39.5057 81.1932 39.7918 81.2623 40.0795 81.2615C41.6446 81.263 42.9136 79.2455 42.9136 76.759L42.9146 70.309C42.9136 67.8206 41.6449 65.805 40.0804 65.805C39.7021 65.805 39.3416 65.923 39.0119 66.1372C40.4428 70.6529 40.4452 76.3016 39.2312 81.0576" fill="#D7D8DA"/>
<path d="M40.0795 80.5064C41.3449 80.5071 42.3829 79.1888 42.5569 77.4827C42.381 75.7784 41.3449 74.4635 40.0804 74.4635C38.8152 74.465 37.7765 75.7811 37.6041 77.4872C37.7789 79.1918 38.8152 80.5064 40.0795 80.5064" fill="#E6E7E8"/>
</g>
<path d="M64.4376 83.9602H64.9138C64.9138 92.7367 67.6755 92.7367 70.6278 92.7367C73.6752 92.7367 76.8179 92.7367 76.8179 102.118H76.3418C76.3418 93.342 73.58 93.342 70.6278 93.342C67.5803 93.342 64.4376 93.342 64.4376 83.9602Z" fill="#94989B"/>
<path d="M50.6288 67.6178C50.6288 66.5888 51.2479 65.802 51.9621 65.802H77.8655C78.5798 65.802 79.1988 66.5888 79.1988 67.6178V82.1444C79.1988 83.1734 78.5798 83.9602 77.8655 83.9602H51.9621C51.2002 83.9602 50.6288 83.1734 50.6288 82.1444V67.6178V67.6178Z" fill="#D0D0D0"/>
<path d="M76.3418 78.5127C76.3418 78.2101 76.5323 77.9075 76.818 77.9075H77.7703C78.056 77.9075 78.2465 78.1496 78.2465 78.5127V79.7233C78.2465 80.0865 78.056 80.3286 77.7703 80.3286H76.818C76.5323 80.3286 76.3418 80.0865 76.3418 79.7233V78.5127ZM73.4848 78.5127C73.4848 78.2101 73.6753 77.9075 73.961 77.9075H74.9133C75.199 77.9075 75.3895 78.1496 75.3895 78.5127V79.7233C75.3895 80.0865 75.199 80.3286 74.9133 80.3286H73.961C73.6753 80.3286 73.4848 80.0865 73.4848 79.7233V78.5127ZM70.6278 78.5127C70.6278 78.2101 70.8183 77.9075 71.104 77.9075H72.0563C72.342 77.9075 72.5325 78.1496 72.5325 78.5127V79.7233C72.5325 80.0865 72.342 80.3286 72.0563 80.3286H71.104C70.8183 80.3286 70.6278 80.0865 70.6278 79.7233V78.5127ZM67.7708 78.5127C67.7708 78.2101 67.9613 77.9075 68.247 77.9075H69.1993C69.485 77.9075 69.6755 78.1496 69.6755 78.5127V79.7233C69.6755 80.0865 69.485 80.3286 69.1993 80.3286H68.247C67.9613 80.3286 67.7708 80.0865 67.7708 79.7233V78.5127ZM64.9138 78.5127C64.9138 78.2101 65.1043 77.9075 65.39 77.9075H66.3423C66.628 77.9075 66.8185 78.1496 66.8185 78.5127V79.7233C66.8185 80.0865 66.628 80.3286 66.3423 80.3286H65.39C65.1043 80.3286 64.9138 80.0865 64.9138 79.7233V78.5127ZM62.0568 78.5127C62.0568 78.2101 62.2473 77.9075 62.533 77.9075H63.4853C63.7234 77.9075 63.9615 78.1496 63.9615 78.5127V79.7233C63.9615 80.0865 63.771 80.3286 63.4853 80.3286H62.533C62.2473 80.3286 62.0568 80.0865 62.0568 79.7233V78.5127ZM59.1998 78.5127C59.1998 78.2101 59.3903 77.9075 59.676 77.9075H60.6283C60.914 77.9075 61.1045 78.1496 61.1045 78.5127V79.7233C61.1045 80.0865 60.914 80.3286 60.6283 80.3286H59.676C59.3903 80.3286 59.1998 80.0865 59.1998 79.7233V78.5127ZM56.3428 78.5127C56.3428 78.2101 56.5333 77.9075 56.819 77.9075H57.7713C58.0094 77.9075 58.2475 78.1496 58.2475 78.5127V79.7233C58.2475 80.0865 58.057 80.3286 57.7713 80.3286H56.819C56.5809 80.3286 56.3428 80.0865 56.3428 79.7233V78.5127ZM55.3905 74.8811C55.3905 74.5179 55.581 74.2758 55.8667 74.2758H56.819C57.1047 74.2758 57.2952 74.5179 57.2952 74.8811V76.0916C57.2952 76.3943 57.1047 76.6969 56.819 76.6969H55.8667C55.6286 76.6969 55.3905 76.4548 55.3905 76.0916V74.8811ZM58.2475 74.8811C58.2475 74.5179 58.438 74.2758 58.7237 74.2758H59.676C59.9141 74.2758 60.1522 74.5179 60.1522 74.8811V76.0916C60.1522 76.3943 59.9617 76.6969 59.676 76.6969H58.7237C58.438 76.6969 58.2475 76.4548 58.2475 76.0916V74.8811ZM61.1045 74.8811C61.1045 74.5179 61.295 74.2758 61.5807 74.2758H62.533C62.8187 74.2758 63.0092 74.5179 63.0092 74.8811V76.0916C63.0092 76.3943 62.8187 76.6969 62.533 76.6969H61.5807C61.3426 76.6969 61.1045 76.4548 61.1045 76.0916V74.8811ZM63.9615 74.8811C63.9615 74.5179 64.152 74.2758 64.4377 74.2758H65.39C65.6757 74.2758 65.8661 74.5179 65.8661 74.8811V76.0916C65.8661 76.3943 65.6757 76.6969 65.39 76.6969H64.4377C64.152 76.6969 63.9615 76.4548 63.9615 76.0916V74.8811ZM66.8185 74.8811C66.8185 74.5179 67.0089 74.2758 67.2946 74.2758H68.247C68.4851 74.2758 68.7231 74.5179 68.7231 74.8811V76.0916C68.7231 76.3943 68.5327 76.6969 68.247 76.6969H67.2946C67.0089 76.6969 66.8185 76.4548 66.8185 76.0916V74.8811ZM69.6755 74.8811C69.6755 74.5179 69.8659 74.2758 70.1516 74.2758H71.104C71.3897 74.2758 71.5801 74.5179 71.5801 74.8811V76.0916C71.5801 76.3943 71.3897 76.6969 71.104 76.6969H70.1516C69.8659 76.6969 69.6755 76.4548 69.6755 76.0916V74.8811ZM72.5325 74.8811C72.5325 74.5179 72.7229 74.2758 73.0086 74.2758H73.961C74.2467 74.2758 74.4371 74.5179 74.4371 74.8811V76.0916C74.4371 76.3943 74.2467 76.6969 73.961 76.6969H73.0086C72.7229 76.6969 72.5325 76.4548 72.5325 76.0916V74.8811ZM71.5801 71.2495C71.5801 70.9468 71.7706 70.6442 72.0563 70.6442H73.0086C73.2467 70.6442 73.4848 70.8863 73.4848 71.2495V72.46C73.4848 72.8232 73.2943 73.0653 73.0086 73.0653H72.0563C71.7706 73.0653 71.5801 72.8232 71.5801 72.46V71.2495ZM72.5325 67.6178C72.5325 67.3152 72.7229 67.0125 73.0086 67.0125H73.961C74.2467 67.0125 74.4371 67.2546 74.4371 67.6178V68.8284C74.4371 69.1915 74.2467 69.4336 73.961 69.4336H73.0086C72.7229 69.4336 72.5325 69.1915 72.5325 68.8284V67.6178ZM69.6755 67.6178C69.6755 67.3152 69.8659 67.0125 70.1516 67.0125H71.104C71.3897 67.0125 71.5801 67.2546 71.5801 67.6178V68.8284C71.5801 69.1915 71.3897 69.4336 71.104 69.4336H70.1516C69.8659 69.4336 69.6755 69.1915 69.6755 68.8284V67.6178ZM68.7231 71.2495C68.7231 70.9468 68.9136 70.6442 69.1993 70.6442H70.1516C70.4373 70.6442 70.6278 70.8863 70.6278 71.2495V72.46C70.6278 72.8232 70.4373 73.0653 70.1516 73.0653H69.1993C68.9136 73.0653 68.7231 72.8232 68.7231 72.46V71.2495ZM65.8661 71.2495C65.8661 70.9468 66.0566 70.6442 66.3423 70.6442H67.2946C67.5803 70.6442 67.7708 70.8863 67.7708 71.2495V72.46C67.7708 72.8232 67.5803 73.0653 67.2946 73.0653H66.3423C66.1042 73.0653 65.8661 72.8232 65.8661 72.46V71.2495ZM63.0092 71.2495C63.0092 70.9468 63.1996 70.6442 63.4853 70.6442H64.4377C64.7234 70.6442 64.9138 70.8863 64.9138 71.2495V72.46C64.9138 72.8232 64.7234 73.0653 64.4377 73.0653H63.4853C63.1996 73.0653 63.0092 72.8232 63.0092 72.46V71.2495ZM60.1522 71.2495C60.1522 70.9468 60.3426 70.6442 60.6283 70.6442H61.5807C61.8664 70.6442 62.0568 70.8863 62.0568 71.2495V72.46C62.0568 72.8232 61.8664 73.0653 61.5807 73.0653H60.6283C60.3426 73.0653 60.1522 72.8232 60.1522 72.46V71.2495ZM57.2952 71.2495C57.2952 70.9468 57.4856 70.6442 57.7713 70.6442H58.7237C58.9617 70.6442 59.1998 70.8863 59.1998 71.2495V72.46C59.1998 72.8232 59.0094 73.0653 58.7237 73.0653H57.7713C57.5332 73.0653 57.2952 72.8232 57.2952 72.46V71.2495ZM56.3428 67.6178C56.3428 67.3152 56.5333 67.0125 56.819 67.0125H57.7713C58.0094 67.0125 58.2475 67.2546 58.2475 67.6178V68.8284C58.2475 69.1915 58.057 69.4336 57.7713 69.4336H56.819C56.5809 69.4336 56.3428 69.1915 56.3428 68.8284V67.6178ZM51.5812 78.5127C51.5812 78.2101 51.7716 77.9075 52.0097 77.9075H54.962C55.2 77.9075 55.3905 78.1496 55.3905 78.5127V79.7233C55.3905 80.0865 55.2 80.3286 54.962 80.3286H52.0097C51.7716 80.3286 51.5812 80.0865 51.5812 79.7233V78.5127ZM51.5812 67.6178C51.5812 67.3152 51.7716 67.0125 52.0097 67.0125H54.962C55.2 67.0125 55.3905 67.2546 55.3905 67.6178V68.8284C55.3905 69.1915 55.2 69.4336 54.962 69.4336H52.0097C51.7716 69.4336 51.5812 69.1915 51.5812 68.8284V67.6178ZM51.5812 71.2495C51.5812 70.9468 51.7716 70.6442 51.9621 70.6442H55.9619C56.1524 70.6442 56.3428 70.8863 56.3428 71.2495V72.46C56.3428 72.8232 56.1524 73.0653 55.9619 73.0653H51.9621C51.724 73.0653 51.5812 72.8232 51.5812 72.46V71.2495ZM74.4371 71.2495C74.4371 70.9468 74.6276 70.6442 74.8657 70.6442H77.8179C78.056 70.6442 78.2465 70.8863 78.2465 71.2495V72.46C78.2465 72.8232 78.056 73.0653 77.8179 73.0653H74.8657C74.6276 73.0653 74.4371 72.8232 74.4371 72.46V71.2495M51.5812 74.8811C51.5812 74.5179 51.7716 74.2758 52.0097 74.2758H54.0096C54.2477 74.2758 54.4382 74.5179 54.4382 74.8811V76.0916C54.4382 76.3943 54.2477 76.6969 54.0096 76.6969H52.0097C51.7716 76.6969 51.5812 76.4548 51.5812 76.0916V74.8811ZM75.3895 74.8811C75.3895 74.5179 75.5799 74.2758 75.818 74.2758H77.8179C78.056 74.2758 78.2465 74.5179 78.2465 74.8811V76.0916C78.2465 76.3943 78.056 76.6969 77.8179 76.6969H75.818C75.5799 76.6969 75.3895 76.4548 75.3895 76.0916V74.8811M75.3895 67.6178C75.3895 67.3152 75.5799 67.0125 75.818 67.0125H77.8179C78.056 67.0125 78.2465 67.3152 78.2465 67.6178V68.8284C78.2465 69.131 78.056 69.4336 77.8179 69.4336H75.818C75.5799 69.4336 75.3895 69.1915 75.3895 68.8284V67.6178ZM59.1998 67.6178C59.1998 67.3152 59.3903 67.0125 59.5808 67.0125H68.3422C68.5803 67.0125 68.7231 67.2546 68.7231 67.6178V68.8284C68.7231 69.131 68.5327 69.4336 68.3422 69.4336H59.6284C59.3903 69.4336 59.2474 69.1915 59.2474 68.8284V67.6178H59.1998ZM75.9132 81.5391H76.7703C77.437 81.5391 77.437 82.7497 76.7703 82.7497H75.9132C75.199 82.7497 75.199 81.5391 75.9132 81.5391ZM73.0563 81.5391H73.961C74.6276 81.5391 74.6276 82.7497 73.961 82.7497H73.0563C72.342 82.7497 72.342 81.5391 73.0563 81.5391ZM70.1993 81.5391H71.104C71.7706 81.5391 71.7706 82.7497 71.104 82.7497H70.1993C69.485 82.7497 69.485 81.5391 70.1993 81.5391ZM67.3423 81.5391H68.1994C68.866 81.5391 68.866 82.7497 68.1994 82.7497H67.3423C66.628 82.7497 66.628 81.5391 67.3423 81.5391ZM64.4853 81.5391H65.3424C66.009 81.5391 66.009 82.7497 65.3424 82.7497H64.4853C63.771 82.7497 63.771 81.5391 64.4853 81.5391ZM61.6283 81.5391H62.4854C63.152 81.5391 63.152 82.7497 62.4854 82.7497H61.6283C60.914 82.7497 60.914 81.5391 61.6283 81.5391ZM58.7713 81.5391H59.6284C60.295 81.5391 60.295 82.7497 59.6284 82.7497H58.7713C58.057 82.7497 58.057 81.5391 58.7713 81.5391ZM55.9143 81.5391H56.7714C57.438 81.5391 57.438 82.7497 56.7714 82.7497H55.9143C55.2 82.7497 55.2 81.5391 55.9143 81.5391ZM53.0573 81.5391H53.9144C54.581 81.5391 54.581 82.7497 53.9144 82.7497H53.0573C52.343 82.7497 52.343 81.5391 53.0573 81.5391Z" fill="white"/>
<rect x="87.7698" y="108.171" width="47.6166" height="4.8422" rx="2.4211" transform="rotate(-180 87.7698 108.171)" fill="#D9D9D9"/>
<rect x="32.5345" y="108.171" width="10.9518" height="24.211" rx="5.47591" transform="rotate(-180 32.5345 108.171)" fill="#D9D9D9"/>
<defs>
<clipPath id="clip0_18_157">
<rect x="150.789" y="160.571" width="15.2373" height="24.211" rx="7.61865" fill="white"/>
</clipPath>
<clipPath id="clip1_18_157">
<rect x="153.477" y="52.4536" width="16.4824" height="22.3821" rx="8.24119" transform="rotate(-90 153.477 52.4536)" fill="white"/>
</clipPath>
<clipPath id="clip2_18_157">
<rect x="141.167" y="87.4786" width="32.9648" height="35.8114" rx="10" transform="rotate(-90 141.167 87.4786)" fill="white"/>
</clipPath>
<clipPath id="clip3_18_157">
<rect x="58.7029" y="160.571" width="15.2373" height="24.211" rx="7.61865" fill="white"/>
</clipPath>
<clipPath id="clip4_18_157">
<rect x="47.7719" y="90.013" width="15.2373" height="24.211" rx="7.61865" transform="rotate(-180 47.7719 90.013)" fill="white"/>
</clipPath>
</defs>
</svg>
