<svg width="100" height="73" viewBox="0 0 100 73" fill="none" xmlns="http://www.w3.org/2000/svg">
<rect width="100" height="73" fill="#063455"/>
<rect x="25" y="29" width="44" height="25" fill="#D9D9D9"/>
<path d="M55.044 40.291C55.044 40.791 54.701 41.158 54.229 41.158C53.765 41.158 53.402 40.778 53.402 40.291C53.402 39.781 53.745 39.423 54.217 39.423C54.681 39.423 55.044 39.804 55.044 40.291ZM40.739 39.371C40.6139 39.3667 40.4896 39.3923 40.3763 39.4457C40.2631 39.4991 40.1643 39.5787 40.088 39.678C39.9352 39.8915 39.8733 40.1569 39.916 40.416L41.395 39.802C41.3402 39.6737 41.2487 39.5644 41.132 39.4879C41.0153 39.4113 40.8786 39.371 40.739 39.372V39.371ZM47.702 39.423C47.23 39.423 46.886 39.781 46.886 40.291C46.886 40.777 47.25 41.158 47.714 41.158C48.186 41.158 48.529 40.79 48.529 40.291C48.529 39.804 48.166 39.423 47.702 39.423ZM58 36V44.006H34V36H58ZM39.01 41.053H37.088V37.828H36.23V41.831H39.01V41.053ZM40.147 40.959L42.31 40.062C42.2714 39.7459 42.143 39.4474 41.94 39.202C41.656 38.872 41.236 38.697 40.724 38.697C39.793 38.697 39.091 39.383 39.091 40.29C39.091 41.22 39.795 41.883 40.817 41.883C41.389 41.883 41.975 41.611 42.249 41.294L41.714 40.883C41.357 41.147 41.154 41.209 40.829 41.209C40.537 41.209 40.309 41.119 40.147 40.959ZM45.717 39.92C45.717 39.211 45.21 38.697 44.465 38.697C44.271 38.6978 44.0797 38.7427 43.9056 38.8283C43.7315 38.9138 43.5791 39.0379 43.46 39.191V38.749H42.614V41.83H43.46V40.077C43.46 39.761 43.705 39.426 44.158 39.426C44.508 39.426 44.87 39.669 44.87 40.077V41.83H45.717V39.92ZM49.364 40.29C49.364 39.386 48.639 38.697 47.714 38.697C46.781 38.697 46.051 39.397 46.051 40.29C46.051 41.193 46.777 41.882 47.702 41.882C48.634 41.882 49.364 41.182 49.364 40.29ZM51.43 41.83L52.698 38.749H51.731L50.966 40.848L50.201 38.748H49.235L50.503 41.829L51.43 41.83ZM55.879 40.29C55.879 39.386 55.154 38.697 54.229 38.697C53.297 38.697 52.567 39.397 52.567 40.29C52.567 41.193 53.292 41.882 54.217 41.882C55.149 41.882 55.879 41.182 55.879 40.29Z" fill="black"/>
</svg>
